<?xml version="1.0" encoding="utf-8"?>
<!-- Generator: Adobe Illustrator 26.0.3, SVG Export Plug-In . SVG Version: 6.00 Build 0)  -->
<svg version="1.1" id="Layer_1" xmlns="http://www.w3.org/2000/svg" xmlns:xlink="http://www.w3.org/1999/xlink" x="0px" y="0px"
	 viewBox="0 0 1404.8 382.3" style="enable-background:new 0 0 1404.8 382.3;" xml:space="preserve">
<style type="text/css">
	.st0{fill:#010101;}
	.st1{fill:#FEE089;stroke:#010101;stroke-width:24;stroke-miterlimit:10;}
	.st2{fill:#010101;stroke:#010101;stroke-width:24;stroke-miterlimit:10;}
	.st3{fill:#FEE089;}
</style>
<rect x="483.2" y="103.9" class="st0" width="181" height="181"/>
<g>
	<g>
		<path class="st1" d="M909,34.2c-19.8,1.6-39.7,1.7-59.3-1.9c-13.9-2.5-22.3,6.3-22.3,18.9c0,24.3-0.4,48.6-0.6,73
			c0,1.2-0.3,2.4-0.6,4.9c-1.3-2.6-2.1-4-2.7-5.5c-8.5-21.2-17-42.3-25.4-63.6c-5.8-14.8-11.5-18.7-27.3-19.3
			c-22.8-0.8-45.6-1.8-68.4-2.9c-14.1-0.7-21.4,6.2-21.7,20.3c-0.3,11-0.5,22-0.8,33.1c-7.6-19.9-19.8-36.7-38.7-48.8
			c-21.4-13.7-45.3-18-70.2-16.8c-40.3,2-73.5,18.4-96.8,51.8c-1.9,2.8-3.7,5.5-5.5,8.3c0.6-12.2,1.1-24.4,1.7-36.7
			c0.5-9.9-5.6-17.9-15.5-19.6c-4.9-0.8-9.9-0.9-14.9-0.9c-16.3-0.2-32.7,0-49-0.6c-14.2-0.5-22.7,6.7-22.9,20.7
			c-0.3,18.2-0.5,36.3-0.7,54.5c-0.1,7.6,0,15.2,0,23.2c-5.6,0.4-10.4,0.7-15.7,1.1c0-1.3,0-2,0-2.6c2.1-26.6,4.1-53.1,6.3-79.7
			c1-12.6-7.2-21.5-19.8-21.4c-21.8,0.2-43.6,0.5-65.4,0.6c-15.9,0.1-23.2,7.2-23.7,23c0,1.3-0.1,2.6-0.1,3.9
			c-0.6-0.6-1.2-1.1-1.8-1.7c-9.8-8.6-20.2-15.3-31-19.9c-31.3-13.3-64-13.3-97.4-0.2C86.9,42.1,60.7,65.5,41,99.1
			c-11.3,19.4-18.2,41.7-20.4,66.5c-1.7,18.6-0.2,35.1,4.5,50.5c8.8,28.9,27,51,54.2,65.9c22.8,12.5,46.4,18.7,70.6,18.7
			c17.1,0,34.6-3.1,52.2-9.4c15.4-5.5,28.6-13.3,39.5-23.4c-0.1,3-0.2,6.1-0.3,9.1c-0.3,10,5.5,18.3,15.4,19.7c20.9,2.9,42,5.2,63,7
			c9.2,0.8,16.6-5.5,18-14.7c1.8-12.3,2.8-24.8,4-37.2c1.1-11.4,2.2-22.8,3.3-34.6c7.1-0.4,13.8-0.7,20.7-1.1c0,1.7,0,2.7,0,3.7
			c-0.3,18.5-0.7,37-0.8,55.4c-0.1,13.1,8.2,20.6,21.1,19.3c18.7-1.9,37.4-3.9,56.1-6.2c3-0.4,6.2-1.4,8.9-3
			c7.5-4.3,9.2-11.8,9.6-19.7c0.3-6.4,0.6-12.8,0.9-19.1c10.5,18.9,26.3,33.7,47.7,43.7c23,10.7,47.5,13.8,72.7,10.8
			c39.2-4.7,69.8-22.8,89.5-57c-1,12.5-1.9,25.1-2.9,37.6c-0.9,11.6,5.7,19.3,17.8,20.1c19.9,1.2,39.9,2.3,59.8,3.2
			c13.6,0.6,20.4-5.7,21.4-19.2c1.6-22.9,3.3-45.8,5.1-70.4c3.9,6.6,7,12.1,10.4,17.3c12.1,18.7,24.3,37.4,36.6,56
			c4.6,7,11.2,11.9,19.7,12c21.2,0.3,42.3,0.3,63.5-0.4c13.2-0.4,18.6-6.8,19.1-20.1c1.9-51.9,3.7-103.8,5.6-155.7
			c0.9-23.3,1.8-46.6,2.7-69.9C930.7,40.4,923.2,33.1,909,34.2z M230.9,193.8L230.9,193.8c-2.5-3.6-6.7-5.4-11-4.7
			c-4.3,0.7-7.7,3.7-9,7.9c-1.3,4.5-3.1,7.6-5.6,10c-4.4,4.2-8.8,5.4-14.2,4.1l-7.1-1.8l-1.4,7.2c-0.8,3.9-2.3,7.3-4.7,10.3
			c-6,7.5-14.3,9.6-22.4,5.5c-5.1-2.6-8.9-7-11.5-13.4c-0.3-0.8-0.6-1.5-0.9-2.3l-3-7.9l-6.5,2.5c-0.3,0.1-0.6,0.2-0.9,0.4
			c-0.3,0.1-0.6,0.2-0.9,0.3c-7.2,2.2-12.3,1.5-16.7-2.3c-6.1-5.3-9.3-13.9-8.5-22.4c0.8-7.7,4.9-14,11.6-17.8
			c1.6-0.9,3.3-1.7,4.9-2.5c0.8-0.4,1.5-0.7,2.2-1.1l6.1-3.1l-3-6.2c-0.7-1.3-1.3-2.6-2-3.8c-1.2-2.3-2.4-4.5-3-6.5
			c-3.1-10.5,2.4-23,12.5-28.5c5.8-3.2,11.1-3.3,16.8-0.5c1.4,0.7,2.8,1.4,4.2,2.2c0.7,0.4,1.3,0.7,2,1.1l3.4,1.8l3.2-1.9
			c1.2-0.6,2.2-1.5,2.8-2.6c0.3-0.5,0.7-1.1,1-1.6c3.9-6.6,9.2-9.8,16.9-9.9c8-0.1,17.1,6.7,20.4,15.3c0.9,2.3,1.4,4.7,1.5,7.3
			c0.2,4.3,3,8.2,7.1,9.7c4,1.5,8.6,0.5,11.6-2.5v0c1-1,1.9-2.1,2.8-3.4c1.7-2.3,3.1-4.7,4.4-7l4.7-8.2c2.8-5,5.7-10,8.6-15.1
			c-1.3,36.7-2.6,73.5-3.8,110.2C239.5,206.3,235.2,200,230.9,193.8z M579.3,208.9c-3,5.2-6.6,9.6-13.5,9.5c-4.5-0.1-7.5-2-9.5-6
			c-4.2-8.3-4.4-17.3-4.8-26.3c-0.7-16.9,0.4-33.7,8.9-48.9c1.6-2.8,3.5-5.6,5.7-8c1.5-1.7,3.5-2.9,5.7-3.4
			c16.4-3.4,16.4,37.7,16.4,37.7C588.5,179.3,587.5,194.8,579.3,208.9z"/>
		<path class="st1" d="M1374.6,64.6c-23.3-6.9-46.3-14.8-69.1-22.9c-9-3.2-18.8,0.6-23.2,8.9c-8.8,17-18.4,33.5-28.3,51.4
			c-0.8-2.4-1.3-3.6-1.7-4.8c-4.4-14.9-8.7-29.7-13-44.6c-3.5-12-8.7-16.4-21-16.7c-22.4-0.6-44.8-1-67.3-1.3
			c-0.2-0.4-0.4-0.8-0.6-1.2c-5.9-12.6-21.1-15.1-30.9-6.8c-14.4,12.1-29.3,23.6-44,35.3c-9.1,7.2-18.1,14.5-27.8,22.2
			c0.7-6.6,1.4-12.2,2-17.8c0.5-5.8,0.6-11.7,1.4-17.4c1.6-12.6-8-22.3-20.9-20.5c-9.9,1.4-19.8,2.8-29.7,4.2
			c-15.3,2.3-30.7,4.3-45.9,6.9c-10,1.7-14.7,7-15.9,17.1c-0.8,6.4-1.2,12.9-1.4,19.4c-0.9,33.5-1.7,66.9-2.3,100.4
			c-0.6,35.2,1.3,70.2,5.8,105.1c1.7,13.4,8,19,21.5,19.2c17.6,0.3,35.3,0.5,52.9,0.7c15,0.1,21.8-6.7,21.8-21.5
			c0-7.9,0-15.8,0-25.2c2.4,2.7,3.8,4.4,5.3,5.9c15.4,15.9,30.7,31.9,46.3,47.7c8.5,8.7,20,8.9,28.5,0.9
			c15.5-14.6,30.6-29.7,46.4-44c11-10,8.5-23.9-1.8-31.6c-13.7-10.3-27-21.2-40.4-31.8c-13.2-10.5-26.5-21-39.9-31.7
			c1.3-1,2.2-1.7,3.1-2.4c22.5-16.3,45.1-32.6,67.6-48.9c10.1,26.5,20.2,53.1,30.3,79.7c0.8,2,1.4,4.2,1.4,6.2
			c-0.1,19-0.5,38-0.6,56.9c-0.1,11.3-0.3,22.6,0.4,33.9c0.5,8.3,7.7,14.4,16,14c24.4-1.2,48.8-2.5,73.2-4.2
			c9.3-0.6,14.6-5.8,15.6-15.2c2.7-23.8,5-47.7,7.2-71.6c0.6-6.6,1.6-12.7,6.3-17.9c3.2-3.5,5.8-7.7,8.6-11.6
			c24-32.7,48-65.5,72.2-98.1C1389.9,81,1386.4,68.1,1374.6,64.6z"/>
	</g>
</g>
<g>
	<g>
		<path class="st2" d="M909,84.8c-19.8,1.6-39.7,1.7-59.3-1.9c-13.9-2.5-22.3,6.3-22.3,18.9c0,24.3-0.4,48.6-0.6,73
			c0,1.2-0.3,2.4-0.6,4.9c-1.3-2.6-2.1-4-2.7-5.5c-8.5-21.2-17-42.3-25.4-63.6c-5.8-14.8-11.5-18.7-27.3-19.3
			c-22.8-0.8-45.6-1.8-68.4-2.9c-14.1-0.7-21.4,6.2-21.7,20.3c-0.3,11-0.5,22-0.8,33.1c-7.6-19.9-19.8-36.7-38.7-48.8
			C620,79.3,596,75,571.1,76.2c-40.3,2-73.5,18.4-96.8,51.8c-1.9,2.8-3.7,5.5-5.5,8.3c0.6-12.2,1.1-24.4,1.7-36.7
			c0.5-9.9-5.6-17.9-15.5-19.6c-4.9-0.8-9.9-0.9-14.9-0.9c-16.3-0.2-32.7,0-49-0.6c-14.2-0.5-22.7,6.7-22.9,20.7
			c-0.3,18.2-0.5,36.3-0.7,54.5c-0.1,7.6,0,15.2,0,23.2c-5.6,0.4-10.4,0.7-15.7,1.1c0-1.3,0-2,0-2.6c2.1-26.6,4.1-53.1,6.3-79.7
			c1-12.6-7.2-21.5-19.8-21.4c-21.8,0.2-43.6,0.5-65.4,0.6c-15.9,0.1-23.2,7.2-23.7,23c0,1.3-0.1,2.6-0.1,3.9
			c-0.6-0.6-1.2-1.1-1.8-1.7c-9.8-8.6-20.2-15.3-31-19.9c-31.3-13.3-64-13.3-97.4-0.2C86.9,92.7,60.7,116.1,41,149.7
			c-11.3,19.4-18.2,41.7-20.4,66.5c-1.7,18.6-0.2,35.1,4.5,50.5c8.8,28.9,27,51,54.2,65.9c22.8,12.5,46.4,18.7,70.6,18.7
			c17.1,0,34.6-3.1,52.2-9.4c15.4-5.5,28.6-13.3,39.5-23.4c-0.1,3-0.2,6.1-0.3,9.1c-0.3,10,5.5,18.3,15.4,19.7c20.9,2.9,42,5.2,63,7
			c9.2,0.8,16.6-5.5,18-14.7c1.8-12.3,2.8-24.8,4-37.2c1.1-11.4,2.2-22.8,3.3-34.6c7.1-0.4,13.8-0.7,20.7-1.1c0,1.7,0,2.7,0,3.7
			c-0.3,18.5-0.7,37-0.8,55.4c-0.1,13.1,8.2,20.6,21.1,19.3c18.7-1.9,37.4-3.9,56.1-6.2c3-0.4,6.2-1.4,8.9-3
			c7.5-4.3,9.2-11.8,9.6-19.7c0.3-6.4,0.6-12.8,0.9-19.1c10.5,18.9,26.3,33.7,47.7,43.7c23,10.7,47.5,13.8,72.7,10.8
			c39.2-4.7,69.8-22.8,89.5-57c-1,12.5-1.9,25.1-2.9,37.6c-0.9,11.6,5.7,19.3,17.8,20.1c19.9,1.2,39.9,2.3,59.8,3.2
			c13.6,0.6,20.4-5.7,21.4-19.2c1.6-22.9,3.3-45.8,5.1-70.4c3.9,6.6,7,12.1,10.4,17.3c12.1,18.7,24.3,37.4,36.6,56
			c4.6,7,11.2,11.9,19.7,12c21.2,0.3,42.3,0.3,63.5-0.4c13.2-0.4,18.6-6.8,19.1-20.1c1.9-51.9,3.7-103.8,5.6-155.7
			c0.9-23.3,1.8-46.6,2.7-69.9C930.7,91,923.2,83.7,909,84.8z M230.9,244.3L230.9,244.3c-2.5-3.6-6.7-5.4-11-4.7
			c-4.3,0.7-7.7,3.7-9,7.9c-1.3,4.5-3.1,7.6-5.6,10c-4.4,4.2-8.8,5.4-14.2,4.1l-7.1-1.8l-1.4,7.2c-0.8,3.9-2.3,7.3-4.7,10.3
			c-6,7.5-14.3,9.6-22.4,5.5c-5.1-2.6-8.9-7-11.5-13.4c-0.3-0.8-0.6-1.5-0.9-2.3l-3-7.9l-6.5,2.5c-0.3,0.1-0.6,0.2-0.9,0.4
			c-0.3,0.1-0.6,0.2-0.9,0.3c-7.2,2.2-12.3,1.5-16.7-2.3c-6.1-5.3-9.3-13.9-8.5-22.4c0.8-7.7,4.9-14,11.6-17.8
			c1.6-0.9,3.3-1.7,4.9-2.5c0.8-0.4,1.5-0.7,2.2-1.1l6.1-3.1l-3-6.2c-0.7-1.3-1.3-2.6-2-3.8c-1.2-2.3-2.4-4.5-3-6.5
			c-3.1-10.5,2.4-23,12.5-28.5c5.8-3.2,11.1-3.3,16.8-0.5c1.4,0.7,2.8,1.4,4.2,2.2c0.7,0.4,1.3,0.7,2,1.1l3.4,1.8l3.2-1.9
			c1.2-0.6,2.2-1.5,2.8-2.6c0.3-0.5,0.7-1.1,1-1.6c3.9-6.6,9.2-9.8,16.9-9.9c8-0.1,17.1,6.7,20.4,15.3c0.9,2.3,1.4,4.7,1.5,7.3
			c0.2,4.3,3,8.2,7.1,9.7c4,1.5,8.6,0.5,11.6-2.5v0c1-1,1.9-2.1,2.8-3.4c1.7-2.3,3.1-4.7,4.4-7l4.7-8.2c2.8-5,5.7-10,8.6-15.1
			c-1.3,36.7-2.6,73.5-3.8,110.2C239.5,256.9,235.2,250.5,230.9,244.3z M579.3,259.5c-3,5.2-6.6,9.6-13.5,9.5c-4.5-0.1-7.5-2-9.5-6
			c-4.2-8.3-4.4-17.3-4.8-26.3c-0.7-16.9,0.4-33.7,8.9-48.9c1.6-2.8,3.5-5.6,5.7-8c1.5-1.7,3.5-2.9,5.7-3.4
			c16.4-3.4,16.4,37.7,16.4,37.7C588.5,229.9,587.5,245.4,579.3,259.5z"/>
		<path class="st2" d="M1374.6,115.2c-23.3-6.9-46.3-14.8-69.1-22.9c-9-3.2-18.8,0.6-23.2,8.9c-8.8,17-18.4,33.5-28.3,51.4
			c-0.8-2.4-1.3-3.6-1.7-4.8c-4.4-14.9-8.7-29.7-13-44.6c-3.5-12-8.7-16.4-21-16.7c-22.4-0.6-44.8-1-67.3-1.3
			c-0.2-0.4-0.4-0.8-0.6-1.2c-5.9-12.6-21.1-15.1-30.9-6.8c-14.4,12.1-29.3,23.6-44,35.3c-9.1,7.2-18.1,14.5-27.8,22.2
			c0.7-6.6,1.4-12.2,2-17.8c0.5-5.8,0.6-11.7,1.4-17.4c1.6-12.6-8-22.3-20.9-20.5c-9.9,1.4-19.8,2.8-29.7,4.2
			c-15.3,2.3-30.7,4.3-45.9,6.9c-10,1.7-14.7,7-15.9,17.1c-0.8,6.4-1.2,12.9-1.4,19.4c-0.9,33.5-1.7,66.9-2.3,100.4
			c-0.6,35.2,1.3,70.2,5.8,105.1c1.7,13.4,8,19,21.5,19.2c17.6,0.3,35.3,0.5,52.9,0.7c15,0.1,21.8-6.7,21.8-21.5
			c0-7.9,0-15.8,0-25.2c2.4,2.7,3.8,4.4,5.3,5.9c15.4,15.9,30.7,31.9,46.3,47.7c8.5,8.7,20,8.9,28.5,0.9
			c15.5-14.6,30.6-29.7,46.4-44c11-10,8.5-23.9-1.8-31.6c-13.7-10.3-27-21.2-40.4-31.8c-13.2-10.5-26.5-21-39.9-31.7
			c1.3-1,2.2-1.7,3.1-2.4c22.5-16.3,45.1-32.6,67.6-48.9c10.1,26.5,20.2,53.1,30.3,79.7c0.8,2,1.4,4.2,1.4,6.2
			c-0.1,19-0.5,38-0.6,56.9c-0.1,11.3-0.3,22.6,0.4,33.9c0.5,8.3,7.7,14.4,16,14c24.4-1.2,48.8-2.5,73.2-4.2
			c9.3-0.6,14.6-5.8,15.6-15.2c2.7-23.8,5-47.7,7.2-71.6c0.6-6.6,1.6-12.7,6.3-17.9c3.2-3.5,5.8-7.7,8.6-11.6
			c24-32.7,48-65.5,72.2-98.1C1389.9,131.6,1386.4,118.7,1374.6,115.2z"/>
	</g>
</g>
<g>
	<g>
		<path class="st3" d="M903.9,34.4c-16.8,3.3-34.2,3.2-50.6-1.7c-16-4.8-25.9,4.4-25.9,18c0,24.3-0.4,48.6-0.6,73
			c0,1.2-0.3,2.4-0.6,4.9c-1.3-2.6-2.1-4-2.7-5.5c-8.5-21.2-17-42.3-25.4-63.6c-5.8-14.8-11.5-18.7-27.3-19.3
			c-22.8-0.8-45.6-1.8-68.4-2.9c-14.1-0.7-21.4,6.2-21.7,20.3c-0.3,11-0.5,22-0.8,33.1c-7.6-19.9-19.8-36.7-38.7-48.8
			c-21.4-13.7-45.3-18-70.2-16.8c-40.3,2-73.5,18.4-96.8,51.8c-1.9,2.8-3.7,5.5-5.5,8.3c0.6-12.2,1.1-24.4,1.7-36.7
			c0.5-9.9-5.6-17.9-15.5-19.6c-4.9-0.8-9.9-0.9-14.9-0.9c-16.3-0.2-32.7,0-49-0.6c-14.2-0.5-22.7,6.7-22.9,20.7
			c-0.3,18.2-0.5,36.3-0.7,54.5c-0.1,7.6,0,15.2,0,23.2c-5.6,0.4-10.4,0.7-15.7,1.1c0-1.3,0-2,0-2.6c2.1-26.6,4.1-53.1,6.3-79.7
			c1-12.6-7.2-21.5-19.8-21.4c-21.8,0.2-43.6,0.5-65.4,0.6c-16.7,0.1-24,7.9-23.7,25.6c-0.6,0.3-0.3,0.1-0.9,0.4
			c-0.3-0.3-0.7-0.6-1-0.9c-9.8-8.6-20.2-15.3-31-19.9c-31.3-13.3-64-13.3-97.4-0.2C86.9,41.6,60.7,65,41,98.5
			c-11.3,19.4-18.2,41.7-20.4,66.5c-1.7,18.6-0.2,35.1,4.5,50.5c8.8,28.9,27,51,54.2,65.9c22.8,12.5,46.4,18.7,70.6,18.7
			c17.1,0,34.6-3.1,52.2-9.4c15.4-5.5,28.6-13.3,39.5-23.4c-0.1,3-0.2,6.1-0.3,9.1c-0.3,10,5.5,18.3,15.4,19.7c20.9,2.9,42,5.2,63,7
			c9.2,0.8,16.6-5.5,18-14.7c1.8-12.3,2.8-24.8,4-37.2c1.1-11.4,2.2-22.8,3.3-34.6c7.1-0.4,13.8-0.7,20.7-1.1c0,1.7,0,2.7,0,3.7
			c-0.3,18.5-0.7,37-0.8,55.4c-0.1,13.1,8.2,20.6,21.1,19.3c18.4-1.8,36.8-3.9,55.2-6.1c1.4-0.2,2.9-0.4,4.2-0.8
			c12.3-3.5,14.6-12.5,15.1-22c0.3-6.4,0.6-12.8,0.9-19.1c10.5,18.9,26.3,33.7,47.7,43.7c23,10.7,47.5,13.8,72.7,10.8
			c39.2-4.7,69.8-22.8,89.5-57c-1,12.5-1.9,25.1-2.9,37.6c-0.9,11.6,5.7,19.3,17.8,20.1c19.9,1.2,39.9,2.3,59.8,3.2
			c13.6,0.6,20.4-5.7,21.4-19.2c1.6-22.9,3.3-45.8,5.1-70.4c3.9,6.6,7,12.1,10.4,17.3c12.1,18.7,24.3,37.4,36.6,56
			c4.6,7,11.2,11.9,19.7,12c21.2,0.3,42.3,0.3,63.5-0.4c13.2-0.4,18.6-6.8,19.1-20.1c1.9-51.9,3.7-103.8,5.6-155.7
			c0.9-23.3,1.8-46.6,2.7-69.9C930.8,38.3,921.4,31,903.9,34.4z M230.9,193.2L230.9,193.2c-2.5-3.6-6.7-5.4-11-4.7
			c-4.3,0.7-7.7,3.7-9,7.9c-1.3,4.5-3.1,7.6-5.6,10c-4.4,4.2-8.8,5.4-14.2,4.1l-7.1-1.8l-1.4,7.2c-0.8,3.9-2.3,7.3-4.7,10.3
			c-6,7.5-14.3,9.6-22.4,5.5c-5.1-2.6-8.9-7-11.5-13.4c-0.3-0.8-0.6-1.5-0.9-2.3l-3-7.9l-6.5,2.5c-0.3,0.1-0.6,0.2-0.9,0.4
			c-0.3,0.1-0.6,0.2-0.9,0.3c-7.2,2.2-12.3,1.5-16.7-2.3c-6.1-5.3-9.3-13.9-8.5-22.4c0.8-7.7,4.9-14,11.6-17.8
			c1.6-0.9,3.3-1.7,4.9-2.5c0.8-0.4,1.5-0.7,2.2-1.1l6.1-3.1l-3-6.2c-0.7-1.3-1.3-2.6-2-3.8c-1.2-2.3-2.4-4.5-3-6.5
			c-3.1-10.5,2.4-23,12.5-28.5c5.8-3.2,11.1-3.3,16.8-0.5c1.4,0.7,2.8,1.4,4.2,2.2c0.7,0.4,1.3,0.7,2,1.1l0.1,0.1
			c2.1,1.1,4.6,1,6.6-0.2v0c1.2-0.6,2.2-1.5,2.8-2.6c0.3-0.5,0.7-1.1,1-1.6c3.9-6.6,9.2-9.8,16.9-9.9c8-0.1,17.1,6.7,20.4,15.3
			c0.9,2.3,1.4,4.7,1.5,7.3c0.1,2.4,0.9,4.7,2.5,6.4c4.6,5.3,12,5.1,16.2,0.7v0c1-1,1.9-2.1,2.8-3.4c1.7-2.3,3.1-4.7,4.4-7l4.7-8.2
			c2.8-5,5.7-10,8.6-15.1c-1.3,36.7-2.6,73.5-3.8,110.2C239.5,205.8,235.2,199.4,230.9,193.2z M579.3,208.4c-3,5.2-6.6,9.6-13.5,9.5
			c-4.5-0.1-7.5-2-9.5-6c-4.2-8.3-4.4-17.3-4.8-26.3c-0.7-16.9,0.4-33.7,8.9-48.9c1.6-2.8,3.5-5.6,5.7-8c1.5-1.7,3.5-2.9,5.7-3.4
			c16.4-3.4,16.4,37.7,16.4,37.7C588.5,178.8,587.5,194.3,579.3,208.4z"/>
		<path class="st3" d="M1374.6,64.1c-23.3-6.9-46.3-14.8-69.1-22.9c-9-3.2-18.8,0.6-23.2,8.9c-8.8,17-18.4,33.5-28.3,51.4
			c-0.8-2.4-1.3-3.6-1.7-4.8c-4.4-14.9-8.7-29.7-13-44.6c-3.5-12-8.7-16.4-21-16.7c-22-0.6-44.1-1-66.1-1.3
			c-0.6-0.4-1.1-0.8-1.7-1.1c-5.9-12.7-21.1-15.2-31-6.9c-14.4,12.1-29.3,23.6-44,35.3c-9.1,7.2-18.1,14.5-27.8,22.2
			c0.7-6.6,1.4-12.2,2-17.8c0.5-5.8,0.6-11.7,1.4-17.4c1.6-12.6-8-22.3-20.9-20.5c-9.9,1.4-19.8,2.8-29.7,4.2
			c-15.3,2.3-30.7,4.3-45.9,6.9c-10,1.7-14.7,7-15.9,17.1c-0.8,6.4-1.2,12.9-1.4,19.4c-0.9,33.5-1.7,66.9-2.3,100.4
			c-0.6,35.2,1.3,70.2,5.8,105.1c1.7,13.4,8,19,21.5,19.2c17.6,0.3,35.3,0.5,52.9,0.7c15,0.1,21.8-6.7,21.8-21.5
			c0-7.9,0-15.8,0-25.2c2.4,2.7,3.8,4.4,5.3,5.9c15.4,15.9,30.7,31.9,46.3,47.7c10,10.1,23.9,8.8,32.5-3.9
			c10-14.7,23.6-26.5,38.5-36.3c15.4-10,13.4-26.1,2.1-34.6c-13.7-10.3-27-21.2-40.4-31.8c-13.2-10.5-26.5-21-39.9-31.7
			c1.3-1,2.2-1.7,3.1-2.4c22.5-16.3,45.1-32.6,67.6-48.9c10.1,26.5,20.2,53.1,30.3,79.7c0.8,2,1.4,4.2,1.4,6.2
			c-0.1,19-0.5,38-0.6,56.9c-0.1,11.3-0.3,22.6,0.4,33.9c0.5,8.3,7.7,14.4,16,14c24.4-1.2,48.8-2.5,73.2-4.2
			c9.3-0.6,14.6-5.8,15.6-15.2c2.7-23.8,5-47.7,7.2-71.6c0.6-6.6,1.6-12.7,6.3-17.9c3.2-3.5,5.8-7.7,8.6-11.6
			c24-32.7,48-65.5,72.2-98.1C1389.9,80.5,1386.4,67.5,1374.6,64.1z"/>
	</g>
</g>
</svg>
