<?xml version="1.0" encoding="utf-8"?>
<!-- Generator: Adobe Illustrator 26.0.3, SVG Export Plug-In . SVG Version: 6.00 Build 0)  -->
<svg version="1.1" id="Layer_1" xmlns="http://www.w3.org/2000/svg" xmlns:xlink="http://www.w3.org/1999/xlink" x="0px" y="0px"
	 viewBox="0 0 2000 920.4" style="enable-background:new 0 0 2000 920.4;" xml:space="preserve">
<style type="text/css">
	.st0{fill:#0E0D0B;}
	.st1{fill:#F6DD94;}
	.st2{fill:#9F6240;}
	.st3{fill:#DD6426;}
	.st4{fill:#926E3A;}
	.st5{fill:#F9F9FA;}
	.st6{fill:#AE9776;}
</style>
<g>
	<path class="st0" d="M71.8,487.7c0-56.3-0.4-112.6,0.1-168.9c0.5-57.2-0.6-114.5-0.1-171.7c0.1-11.9,1.1-12.9,13-12.9
		c26.1,0,52.1,0,78.2,0.1c3.7,0,7-0.7,10.3-2.3c46.7-21.9,94.5-23.8,143.4-8.4c2.7,0.8,5.4,1.9,7.8,3.4c9.6,6.2,20,7.4,31.2,7.4
		c308.2-0.2,616.3-0.2,924.5-0.1c5.3,0,8.7,0.1,8-7.3c-0.7-8.9,5.5-14.3,15.3-15.5c2.1-0.2,4.2-0.4,6.2,0c4.5,0.8,7.2-0.8,10.7-4
		c8.2-7.4,18.4-7.2,28.3-3.6c4.2,1.5,6.5,1,9.1-2.2c3.5-4.2,7.4-8.1,10.8-12.4c21.5-27.7,59-34,88.7-22.6c4.3,1.7,8.3,2,12.7,1
		c11.3-2.5,21.7-7.5,32.5-11.5c20.5-7.6,41.4-13.2,63.5-12.8c11.9,0.2,23.7,1.9,35.4,4c6.9,1.3,13,0.6,19.4-3
		c17.6-9.9,36.2-17.8,55.7-23.6c6.2-1.8,12.5-3.1,19-2.8c10.8,0.7,16.4,6.6,16.5,17.5c0.2,17.8-2,35.5-5.4,52.9
		c-1.7,8.9-1.3,16.1,5.2,23.2c5.6,6.2,9.6,14,14.4,21c2.5,3.6,5,7.1,7.8,10.4c8.4,9.7,17.8,15.5,32,15.1
		c28.5-0.8,55.8,5.8,81.2,19.5c1.7,0.9,3.7,1.4,5,2.7c7.7,7.8,15.1,5.3,24,1.2c20.1-9.2,41.2-16,62.8-20.6
		c17.1-3.7,27,4.7,27.4,22.3c0.1,5-0.8,9.8-2.2,14.5c-4.3,14.9-8.6,29.7-13.2,44.5c-1.5,4.9-1.5,9.2-0.3,14.2
		c5.8,24.7,2.4,48.4-9.7,70.7c-1.9,3.6-2,6.4-0.8,10c7.7,22.3,15.1,44.7,20.3,67.8c8.1,35.8,8.9,71.9,3.1,108.1
		c-4.8,29.5-16.4,56.1-37.2,78.1c-2.7,2.9-3.5,5.8-3.5,9.6c0.1,77.3,0.1,154.5,0.1,231.8c0,7.7-2.2,10.2-9.9,9.1
		c-8.3-1.2-14.9,1.3-21.7,5.5c-16.3,10.2-34.7,15.6-52.8,21.6c-38.8,12.9-78.9,16.9-119.4,18.2c-24.5,0.8-49.1,1.5-73.6,0.1
		c-29-1.6-57.5-6-85.7-12.4c-37-8.4-73.8-17.9-109.1-32c-6-2.4-12.3-1.1-18.5-1.2c-4.9-0.1-9.8,0.4-14.7,0.4c-230.3,0-460.7,0-691,0
		c-6,0-12.1-0.2-18.1-0.5c-8-0.5-15.5,0.8-23.1,4c-38.7,16.2-78.4,29.5-119.8,37.5c-18.5,3.6-37.2,3.4-55.8,4.8
		c-44.5,3.3-88.4-0.6-131.3-12.5c-28.5-7.9-56.9-16.8-82.4-32.5c-3.2-1.9-6.6-1.2-10-1.1c-23.8,1-47.6,0.3-71.4,0.4
		c-42.9,0.1-85.8,0-128.7,0c-1.9,0-3.8-0.1-5.7-0.1c-5.6,0.1-8.4-2.6-8.3-8.2c0.1-2.1,0-4.2,0-6.2C71.8,714,71.8,600.8,71.8,487.7z
		 M1082.1,491.3c0.4,0.2,0.8,0.3,1.2,0.5c-0.1-0.5-0.1-1-0.2-1.4c-1.4-6.1,1.2-11.9,1.4-17.9c1.2-30,7.7-59.1,15.9-87.8
		c1.1-3.8,1-7.2-0.1-11c-14.6-48.2-36.9-92.4-68.1-132.1c-34.8-44.3-78-76.5-132-93.5c-10.1-3.2-20.3-6.8-30.8-7
		c-31.9-0.6-63.9-0.2-95.8-0.3c-2,0-3.4,0.3-4.4,2.5c-2.8,6-7.3,11-12.7,14.2c-10.1,5.9-13.7,14.7-15.3,25.6
		c-2.5,16.9-11.2,30.7-23.6,42.2c-6.1,5.6-13.5,8.3-21.8,7.7c-9.5-0.7-16-7.4-16.8-16.8c-0.5-5.6,1.5-10.7,3.2-15.9
		c2.5-7.8,5.3-15.8,2.7-24.3c-1.3-4.4-4-6-8.6-5c-19.4,4.1-35.8,26.7-23.9,48c7.2,12.9,1,27.8-12.9,32.7c-14,4.9-27.1,3.3-38.8-6.4
		c-1.3-1.1-2.2-3.5-4.7-0.5c-10.9,12.8-24.3,14.2-38.1,4.6c-11.8-8.2-17.2-20.2-20.1-33.7c-0.4-1.8,0.3-3.9-3.1-4.2
		c-9.8-1-13.5-5-14.8-14.6c-0.9-6.9-1.9-13.8-2.9-20.8c-1.4-10.3,0.9-19.5,7.9-27.4c2-2.3,4-4.7,6.3-7.4c-60.3,0-119.7,0-180,0
		c14.9,10.7,28.2,21.9,40.9,33.8c25.2,23.7,47.7,50,69.7,76.6c7.3,8.9,15.1,17.5,24.2,24.6c25.9,20.2,56.1,27,88.1,27.4
		c27.3,0.3,53.5-6.1,79.7-12.9c10.4-2.7,20.4-6.3,30.1-11.4c26.5-13.9,49.1-33.1,72-51.9c12.3-10.1,24.7-20.3,41.4-21.9
		c15.7-1.5,32.5,9.3,30.6,28.5c-1.4,14.2-7.9,25.7-17.3,36.1c-23.5,25.8-53.4,42.5-84.2,57.4c-34,16.4-69.8,27.6-107.2,33.5
		c-35.2,5.5-70.3,10.8-105.8,3.2c-21.7-4.6-41.8-12.6-59.8-25.9c-27.4-20.2-50-45.4-72.7-70.4c-16.4-18-30.5-38.1-48.9-54.2
		c-13.5-11.8-29.5-19.2-47.5-20.7c-36.3-3.2-70.4,22.4-83.1,55.7c-6.1,15.9-9.5,32.6-11.8,49.5c-4.4,30.9-10,61.5-18.3,91.5
		c-2.6,9.5-5.5,18.9-11,27.2c-1.3,2-2.9,4.7-5.7,3.3c-2.9-1.3-1.8-4.3-1.1-6.5c1.7-5.2,3.9-10.2,5.6-15.4c8-25,13.5-50.6,17.8-76.6
		c3.6-22.3,6.2-44.8,12.7-66.7c7.6-25.4,22.2-45.4,44.9-58.9c36.1-21.4,73.1-15.2,105.3,11.8c15.3,12.8,26.6,29.4,39.9,44
		c22.1,24.3,43.6,49.2,68.9,70.4c18.9,15.9,40.2,27.1,64.2,32c25.4,5.3,51.1,5.9,77.2,2.7c31.8-3.9,62.8-10.4,93.3-20.1
		c26.3-8.3,49.3-22.7,72.9-36.2c20.4-11.6,38.3-26.2,53.4-44.2c6.4-7.6,9.7-16.5,9.4-26.6c-0.1-5.5-2.6-9.6-7.1-12.1
		c-4.6-2.6-9.7-4.1-15.2-3.1c-8.4,1.5-15.8,5.2-22.4,10.3c-11.2,8.6-22.4,17.4-33.1,26.6c-18.7,15.9-38.7,30-61.1,39.6
		c-34.9,14.9-71.8,21.9-109.8,21.8c-23.7-0.1-46.4-5.4-68-15.4c-19-8.9-33.4-23.2-46.5-39c-29-34.6-58.1-69.1-93.5-97.6
		c-16.2-13.1-32.7-25.7-53.2-31.6c-46.4-13.2-91.7-10.6-134.9,11.5c-46.5,23.7-77.6,59.8-87.5,112.2c-1.9,9.8-3.3,19.7-5,29.6
		c-1.6,9.5-2.7,19.1-2.7,28.7c0,172.5,0,345-0.1,517.5c0,5.1,1.3,6.1,6.2,6.1c63.7-0.2,127.4-0.1,191-0.1c1.4,0,2.9,0.6,4.3-0.4
		c-0.1-1.8-1.8-1.8-2.8-2.5c-6.8-5-13.8-9.9-20.6-15c-1.9-1.4-3.9-3.6-1.8-6.3c1.9-2.3,4.1-1,6.1,0.1c4.4,2.5,8.7,5.3,12.9,8.2
		c16.1,11.3,32.9,21.5,51,29.4c73.9,32.2,151.1,38,230,27.8c39.6-5.1,77.1-18.3,114.1-32.8c33.8-13.2,66.9-27.6,94.1-52.9
		c40.2-37.2,66.6-81.1,70.2-137c3.9-60.4-26.7-113.1-78.9-141c-2.1-1.1-3.1-1.1-4.5,1c-11.4,18.1-28.8,28.5-48,36.4
		c-14.2,5.8-29.3,7.1-44.5,6.7c-2.4-0.1-5-0.5-5.2-3.2c-0.3-2.9,2.6-3.4,4.7-3.9c5.2-1.1,10.4-2.2,15.6-2.8
		c20.8-2.6,39.1-11,55.4-24c6.4-5.1,12.9-11.2,14.9-18.8c1.7-6.7,5.3-7.4,10.2-7.8c14.3-1.2,24.8-8.4,32.5-20.1
		c8.2-12.5,5.1-26.3-7.3-33.7c-5.8-3.5-12.1-3.8-18.6-3.1c-2.7,0.3-6.2,0.8-7.6-2.3c-1.4-3.1,1.9-4.5,3.7-6.3
		c0.3-0.3,0.6-0.5,0.9-0.7c9.3-8.3,7.7-19.1-3.4-24.5c-9.7-4.7-19.6-2.9-29.5-1.5c-2.2,0.3-4.2,0.7-5.6-1.4
		c-1.4-2.2,0.1-3.9,1.3-5.6c4.5-6.3,2.5-12.7-4.8-15c-7.8-2.5-14.9,0.3-22.8,2.8c2.2,1.4,3.5,0.7,4.8,0.8c4.8,0.1,9.7,0.1,12.3,5.2
		c2.6,5.1,1.8,10-1.5,14.4c-2.3,3-4.8,5.8-7.6,8.4c-4.7,4.4-10.3,6.8-16.6,4.4c-6.8-2.6-8.4-8.7-9-15.2c-0.6-6.1,3.2-9.7,7.7-12.9
		c1.5-1.1,3.8-1.2,5-3.4c-6.9-2.9-13.4-1.1-19.7,0.5c-30.7,8.2-59.6,20.8-85.9,38.6c-19.6,13.3-35.2,30.3-42.2,53.8
		c-7.7,25.5,2.5,49,25.9,59.6c8.3,3.8,17.2,5.5,26.2,6.8c2.4,0.4,5.3,1.1,5.1,4.3c-0.3,3.2-3.2,3.4-5.7,3.2
		c-23.8-1.8-44.3-9.6-56.3-32c-1.5-2.7-3.1-3.7-6.1-3.7c-9.3,0-18.5-0.4-27.8-0.4c-34.7-0.2-68.5,6.1-101.1,17.5
		c-43.3,15-81.5,38.6-113.1,72c-24.2,25.6-41.2,55.3-47.7,90.4c-0.9,4.8-1.6,9.7-2.4,14.5c-0.3,2-1.2,3.7-3.5,3.8
		c-2.5,0.1-3.1-2-3.4-3.8c-0.7-3.9-0.8-7.9-0.2-11.9c5-32.8,19.1-61.5,40.1-86.9c22.9-27.7,50.2-50.1,82.1-66.7c1.5-0.8,3-1.8,5-3.1
		c-20.3-8.7-33.2-22.4-33.8-44.7c-0.5-21.3,7.4-38.1,27.9-47.7c-1.5-0.9-2.6-1.6-3.8-2.3c-20.5-12.3-26.1-36.2-13.1-56.3
		c13.7-21.2,34.3-27.7,58.2-26.7c1.5,0.1,3,0.6,4.3,1.2c1.8,0.8,3.3,2.2,2.7,4.4c-0.5,2-2.3,2.3-4.1,2.4c-4.1,0.3-8.3,0.6-12.4,0.9
		c-17.5,1.4-32.1,8-41.6,23.6c-8,13-6.4,27,4.4,37.7c6.7,6.7,15.3,9.4,24.2,11.5c2.1,0.5,2.6-0.7,3.4-2c2.1-3.4,4.5-6.5,7.5-9.2
		c13.5-11.5,29.1-10.8,45.1-8c1.4,0.2,2.7,1.3,3.8,2.3c1.6,1.5,2.6,3.4,1.3,5.5c-1.2,1.9-3.1,1.9-5,1.3c-8.4-2.8-16.8-1.9-25.2-0.7
		c-7.7,1.2-13.7,5.2-18.1,11.6c-3.4,4.9-2.7,8.2,2.5,11.2c5,2.9,10.5,4.2,16.3,4.2c5.3,0.1,10.6-0.2,15.8,0.9
		c2.1,0.5,4.3,1.2,4.4,3.7c0.2,2.9-2.2,3.8-4.6,4.1c-9.6,1.3-19.1,1.8-28.6-1c-6.5-1.9-13-4.5-15.6-11.1c-2.3-5.8-5.7-4.8-9.7-3.5
		c-2.3,0.8-4.4,2.1-6.8,2.9c-25.8,8.9-31.8,48.5-10.5,65.8c5.7,4.6,12.2,7.4,19,9.8c4,1.4,7.4,1,11.4-0.6
		c47.9-20.6,98-28.7,149.9-25.6c4.1,0.2,4.4-0.9,3.7-4.3c-1.3-6.4-1.1-12.8-0.2-19.2c3.6-23.9,16.9-42.2,34.8-57.3
		c27.9-23.6,61-37.4,95.4-48.2c15.4-4.8,31.9-2.7,47.3-7.5c1.7-0.5,3.8-0.2,5.6,0c10.8,1,18.4,8.2,19.2,18.7c0.2,3,1.5,2.8,3.5,2.6
		c4.9-0.4,9.8-0.1,14.6,1c17.6,4.1,27.2,18,20.2,33.3c-1.5,3.2,0.7,2.7,2.6,3.1c16.1,3.4,26.7,15.4,26.5,31.4
		c-0.2,15.8-9.4,26.6-21.6,35.3c-5.1,3.6-11.2,5.6-18.1,7.5c1.8,1,2.7,1.6,3.7,2.1c22.1,11.3,39.3,28.2,53.3,48.2
		c16.6,23.7,25.2,50.3,26.5,79.5c1.2,27.7-2.7,54.4-13.5,79.7c-20.7,48.5-54.3,85.7-100.8,111c-5.3,2.9-10.6,5.9-16.5,9.2
		c239.3,0,477.6,0,716.8,0c-57.3-22.5-110-52.1-164.5-81.5c4.6,7.7,5,15.1,6.2,22.3c2.2,13.1,5.7,26.4,1.1,39.7
		c-0.9,2.7-1.7,6.2-5.1,5.8c-3.5-0.4-3.7-4-3.5-6.8c1-15.8-2.3-31.1-5-46.6c-2.2-13.1-8.6-23.1-19.7-30.3
		c-20.5-13.2-41.4-25.7-59.7-42c-3-2.7-7.2-4.3-11.5-2.1c-26.3,13.6-53.2,11.8-80.4,3.1c-3-0.9-4.3-0.6-5.6,2.2
		c-2.6,5.3-7.3,8-12.9,7.7c-13.4-0.7-26.5-3.8-39.1-8.4c-2.9-1-5-3.4-6.9-5.8c-6-7.8-12.2-15.4-17-24c-3.5-6.2-5.7-12.8-3-20
		c0.7-1.9-0.3-2.6-1.4-3.7c-11.2-11.2-13.3-25.7-6.2-39.9c3-6,7.7-10.6,12.6-15.9c-8.5-2-16.3-4.1-24.5-2.9
		c-11.4,1.7-22.7,0.6-33.7-2c-12.8-3-23.1-10.1-28.1-22.5c-7.1-17.7,5.6-38,25.6-42.2c10.9-2.3,21.9-0.5,32.8-1.1
		c3.6-0.2,7.1,0,10.7,0c0-0.5,0.1-1.1,0.1-1.6c-2.2-1-4.4-1.9-6.5-2.9c-11.6-5.4-21.3-12.9-26.5-25.1c-4.6-10.7-5.6-21.6,2-31.1
		c7.3-9.2,17.8-10.1,28.5-6.9c13,3.8,26.4,6.6,39.5,10c14.9,3.8,29.4,8.4,41.6,18.5C1073,482.8,1076.7,488,1082.1,491.3z
		 M1197.5,365.7c0.6,4.2,0.9,8,1.8,11.6c3.9,17,10.2,33.1,17.9,48.8c11.7,23.8,26.2,45.4,45.5,63.8c14,13.3,29.2,25.1,44.6,36.6
		c25.5,19,52.7,35.2,80.9,49.9c22.7,11.9,46.7,20.3,71.3,27.2c28.6,8,57.3,15.1,86.9,18c27.3,2.7,54.3-0.4,81.4-3.4
		c13.3-1.5,26.7-3.2,40-0.1c2.9,0.6,7,0.8,6.8,4.6c-0.2,4.2-4.4,3.2-7.2,3.3c-4,0.1-8,0-12,0c5.7,4.1,11.8,7.1,17.7,10.2
		c20.2,10.6,41.3,18.8,63.9,22.4c21.6,3.4,42.4-1.3,63.3-6.2c20.5-4.9,38.6-13.9,53.9-28.6c2.4-2.3,5.2-4.4,8-6.3
		c2.2-1.5,4.9-4.2,7.6-1.8c3.1,2.8-0.7,4.9-1.7,7.3c-0.1,0.2,0.3,0.6,0.6,1.3c5.3-3.2,10.8-6.2,15.9-9.7
		c27.3-18.5,49.2-41.6,61.2-73c6.7-17.5,9.4-35.6,10.7-54.2c2.2-31.8-1.2-62.9-9.3-93.7c-5.3-20.1-13-39.4-18-59.6
		c-0.9-3.5-0.4-6.1,1.3-9c13.2-22.3,15.4-46.2,9.9-71.1c-0.6-2.9-0.8-5.5,0.1-8.3c4.1-13.4,8.2-26.7,12.1-40.1
		c2.1-7.2,5-14.3,5.2-21.9c0.4-12.9-5.3-17.8-17.9-15.1c-7.5,1.7-15,3.9-22.4,6.2c-15.9,4.9-32.1,9.5-46.5,17.6
		c-7.4,4.2-12.1,2-18.1-1.2c-7.8-4.2-15.7-8.4-23.8-11.9c-16.9-7.5-34.8-11-53.3-12c-32-1.7-63.4,0.5-93.3,13.5
		c-12.5,5.4-23.4,13.1-32.2,23.5c-2.9,3.5-5.7,7-6.7,11.6c-0.7,3.2-0.2,5,3.8,4.4c5.8-0.9,11.7-0.4,17.5,0.7
		c30.5,5.5,60.9,11.5,90.7,19.8c44.8,12.5,85.5,33,122,61.8c4,3.2,8,6.4,10.9,10.7c1.4,2,1.9,4.2-0.2,6.1c-1.8,1.7-3.9,1.2-5.7-0.1
		c-1.1-0.7-2.1-1.5-3.1-2.4c-29.8-26.4-64.2-45.2-101.3-59c-35.3-13.2-72.6-19-109.4-26.8c-18.4-3.9-34.8-0.4-49.8,10.8
		c-13.7,10.1-27.5,20-41.2,30.1c-1.1,0.8-2.9,1.1-3,3.3c2.9,1.1,5.9,2.3,8.8,3.4c30.7,11.1,61.5,21.9,92.2,33.2
		c43.8,16.1,87.5,32.3,131.7,47.3c23.6,8,47.3,15.8,70.2,25.7c2.2,0.9,6.2,1.1,5.6,4.5c-0.6,3.5-4.5,3.5-7.4,4.1
		c-1.5,0.3-3,0.3-4.5,0.2c-6.8-0.5-13.6-0.9-20.3-1.6c-36.2-3.9-72.4-8.7-108.6-13c-58.2-6.8-111.5-27.5-162.7-54.8
		c-9.5-5.1-18.1-11.3-24.8-20.6c-0.8,2.8-0.2,4.6,0.1,6.4c5,25.2,19,45.3,36.1,63.7c19.4,20.9,42.6,37.3,65.9,53.4
		c15.1,10.4,30.8,19.9,47.8,26.9c2.6,1.1,5.5,2.8,3.7,6.4c-1.6,3.1-4.3,2.2-6.9,1.2c-8.6-3.4-17.3-6.6-25.3-11.4
		c-25.9-15.4-50.5-32.7-73.2-52.4c-24.2-21-45.1-44.7-54.8-76.3c-2.9-9.5-5-19.2-2-28.9c1.2-3.9,0.7-4.4-3.2-4.9
		c-26.4-2.9-51.9-9.3-76.1-20.7c-20.4-9.6-40-20.6-59.8-31.2c-17.6-9.4-35.9-17.6-53.1-27.9c-24.4-14.7-44.9-33.1-58.4-58.7
		c-1.1-2.1-1.9-4.5-4.2-6c-3.4,4.8-3.7,9.7-1.7,15.1c2.4,6.2,6.8,10.8,11.3,15.4c1.9,1.9,3.8,4.3,1.7,6.9c-2.3,2.9-5.4,1.6-7.5-0.3
		c-2.8-2.5-5-5.5-8-9c-1.9,3.9-2,6.7-1.7,9.4c0.8,6.4,2,12.7,4.9,18.5c9.4,19.5,22.6,36.1,37.9,51.2c7.7,7.6,16.2,14.1,25.4,19.8
		c2.1,1.3,4.7,2.8,3.3,5.7c-1.5,3.2-4.5,2.2-6.9,1.3c-2.4-0.9-4.9-2.1-7-3.6c-30.6-21.4-53.6-48.9-66.5-84.6
		c-4.9,3.7-7.8,8.8-7.9,15.1c-0.2,8.2,0.5,16.3,3.7,23.9c8.5,20.5,23.3,36,40.3,49.5c31.3,24.8,66.7,42.6,102.4,60
		c2.5,1.2,5.2,3.4,7.7,3.3c3-0.1,2.7-4.4,4.6-6.4c1.3-1.3,2.2-3.2,3.7-4.2c3.5-2.4,2.6-4.5,0.4-7.3c-5.3-6.6-11.5-12.6-15.7-20.1
		c-8-14.5-3.2-27,12.4-32.3c3.4-1.2,6.9-1.7,10.6-1.8c18.9-0.1,35.2,7.7,51.1,16.5c11.1,6.1,21.7,13.3,29.7,23.3
		c5.1,6.4,6.5,14.2,3,21.9c-3.4,7.7-9.9,10.9-18.2,11.1c-9.2,0.2-18-1.2-26.6-4.4c-9.4-3.5-19-6.2-29.3-5.4
		c-5.7,0.5-10.1,2.9-13.4,7.4c-4.1,5.7-4,6.3,2.4,9.4c2,1,4.1,2,6,3.2c21.5,12.7,40.8,28.7,60.6,43.8c31.7,24.1,60.9,51.5,94.2,73.5
		c16.9,11.2,34.8,20.5,54.8,25c16.4,3.7,32.6,2.5,49,0.3c10.4-1.4,20.8-4,31.5-2.9c11.8,1.2,19.9,8.3,22.5,19.8
		c2.3,10.1-0.5,18.7-7.4,26.1c-8.7,9.3-19.4,15.7-31.7,19c-28.6,7.6-56.9,5.4-85-2.5c-30.8-8.7-56.9-25.6-80.9-46.3
		c-18.7-16.2-37.2-32.6-56.3-48.3c-38.1-31.3-80.8-54.1-126.3-72.3c-13.7-5.5-27.3-11.2-41.2-15.8c-33.2-11-60.4-31.6-87.1-53
		c-13.7-11-25.8-23.8-33.7-40c-4.5-9.2-7.3-18.9-8.8-29.6c-4,2.7-5.9,6-7.2,9.7c-4.5,13.3,1.3,24.3,8.1,35c2,3.2,5.8,7,2.3,9.8
		c-3.8,3-7.1-1.3-9.6-4.5c-6.3-8-9.2-17.5-11.5-27.4c-3,1.1-3.9,3.6-5.1,6c-4.4,8.7-3.5,17.7-1.5,26.6c4.8,21.8,14.8,40.7,32.1,55.2
		c1.1,1,2.3,2,3.2,3.2c0.9,1.2,1.5,2.6,0.5,4.2c-1,1.7-2.6,2.3-4.4,1.8C1202.2,367.7,1200.2,366.8,1197.5,365.7z M1775.6,736.9
		c5.3,4.2,9.6,7.5,13.9,10.9c2.5,2,4.8,4.3,6.2,7.2c0.8,1.6,0.9,3.3-0.5,4.7c-1.5,1.4-3.1,1.1-4.7,0.1c-1.3-0.8-2.5-1.7-3.7-2.7
		c-9.4-7.3-18.9-14.5-29-20.7c-51.4-31.6-106.2-55-164.7-69.8c-30.6-7.7-61.7-12.8-92.8-18.2c-31-5.4-62.1-11.1-92.9-17.9
		c-47.4-10.5-95.1-19.1-141.2-34.6c-12.7-4.3-25.1-9.3-37.6-14.1c-3.1-1.2-4.3-1.1-4.3,2.7c0.1,4.5-0.5,9.1-2.9,13.1
		c-1.6,2.6-3.5,5.8-7,4.2c-3.3-1.5-1.7-4.9-1-7.6c5.2-20,0-38.1-10-55.2c-7.4-12.6-19.8-19.3-32.6-25.3
		c-20.3-9.4-39.1-20.7-49.9-41.7c-2.5-4.9-7.1-6.5-12.5-6c-11.4,1-17.9,11.2-14.7,22.7c2.9,10.5,10.4,17.8,17.4,25.4
		c1.4,1.5,3.5,2.8,1.9,5.2c-1.4,2.1-3.7,1.5-5.7,0.9c-1.4-0.5-2.8-1.1-4.1-1.9c-12.7-7.5-24.7-16.1-35.3-26.5
		c-7.8-7.6-16.6-13.6-27-17.1c-19.4-6.5-39.6-9.8-59.1-15.7c-2.4-0.7-4.9-0.6-7.3-0.1c-5.5,1-9.3,3.8-10.2,9.8
		c-1.5,10.8,3.1,19.2,10.6,26.1c8.9,8.3,20,11.8,32,13c7,0.7,14.1,1.4,20.1,5.3c15.7,10.2,32.4,18.6,48.6,27.9
		c3,1.7,8.4,3.7,6.1,7.9c-2.4,4.5-7.2,1.2-10.6-0.2c-12.2-4.8-23.5-11.2-34.7-17.9c-6-3.6-12.3-5.4-19.4-5.1
		c-19.6,1.1-39.2,3.1-58.9,2.2c-2.3-0.1-4.5,0-6.8,0.2c-10.9,1.2-19.5,8.6-21.8,18.6c-2,8.6,2.2,16.6,12.4,22.6
		c10.2,6,21.8,7.2,33,5.9c14.8-1.7,28.5,1,42.5,4.6c2,0.5,3.9,0.9,6.1,0.5c15.8-3.2,31.2-0.4,46.4,3.5c2.2,0.6,4.8,1.5,4.5,4.3
		c-0.3,3.3-3.3,3.3-5.7,3.1c-10.6-0.6-21.1-1.5-31.7-2.1c-15.9-0.9-31.2,10-35.4,25.4c-2.1,7.7-1.2,15,4.4,21.2c2,2.3,3.7,2.7,5.9,0
		c4.8-5.8,11.1-8.8,18.3-10.6c14.3-3.6,28.5-2,42.8-0.3c3.3,0.4,8.5,0.2,8.2,4.9c-0.3,4.1-5.3,3.5-8.5,3.5c-8.5,0-17-0.9-25.5-0.8
		c-12.5,0.1-23.8,3.1-31.9,13.9c-5.1,6.8-6.1,9.3-1.5,16.6c4.3,6.9,9.4,13.3,13.9,20c3.2,4.7,7.5,7.2,13,8.2
		c6.5,1.2,12.9,2.8,19.4,4.2c2.8,0.6,5.6,1,8.4,0.4c2-0.4,3.4-1.6,3.9-3.6c0.6-2.1-1-2.9-2.3-4c-5.5-4.7-11.1-8.9-18.9-5.1
		c-0.5,0.2-1.1,0.2-1.7,0.1c-3.1-0.4-7.3-0.4-7.6-4.3c-0.2-3.5,3.7-3.6,6.4-4.3c1.1-0.3,2.2-0.4,3.3-0.6c1.3-0.3,1.9-0.9,1.2-2.4
		c-1-2.1-2-4.5,0.5-6.1c2.5-1.5,4.7,0.3,6.7,1.7c1.4,1,2.7,2,4,3.1c20.8,17.9,45.4,23.1,72,20.7c15.1-1.4,28.6-6.8,38.8-18.7
		c0.9-1,1.9-1.9,3-2.6c1.8-1.3,3.8-1.9,5.7-0.3c1.9,1.6,1.8,3.7,0.8,5.7c-1.3,2.7-2.9,5.2-4.4,7.9c2.2,1,3.8-0.3,5.5-1
		c1.9-0.8,3.7-1.9,5.7-2.6c2.2-0.8,4.6-1.4,6.1,1c1.7,2.5,0.5,4.8-1.4,6.6c-1.9,1.8-4.1,3.3-6.2,4.9c0.7,1.9,2.5,2.8,4,3.9
		c18.3,14.1,37.7,26.6,57.5,38.2c27.4,16,55.2,31.1,83.3,45.9c38.5,20.2,77.8,38.5,118.4,54.1c42.6,16.3,86.6,27.8,131.4,36.4
		c21,4,42.1,6.6,63.5,7.9c23.4,1.4,46.8,0.5,70.2-0.2c39.7-1.3,79-5.2,117.2-17.5c24.8-8,48.8-17.1,70.2-32.2
		c2.3-1.6,4.6-4.4,7.4-1.9c3,2.6-0.1,5-1.3,7.4c-0.1,0.2,0.2,0.7,0.2,0.9c5,1.4,4.6-1.9,4.6-5.1c0-53.3,0-106.6-0.1-159.8
		c0-1.3,0.8-3-0.4-3.7C1876.1,703.3,1829.8,726.6,1775.6,736.9z M1094.9,460.2c21.7-7.8,30-1.4,37.7,12.6
		c5.4,9.7,13.4,16.6,22.9,22.2c9,5.3,18.2,10,27.5,14.6c6.8,3.3,13.1,7.2,18.6,12.7c12.8,12.6,18.7,28.5,22.6,45.4
		c0.5,2.3,1.2,3.7,3.4,4.5c20.1,8.1,40.3,16.2,61.3,22c46.2,12.8,93.2,22.7,140.2,31.8c44.1,8.5,88.4,15.7,132.6,24
		c47.2,8.9,92.5,23.8,136.1,43.7c20.7,9.4,40.6,20.2,60.1,31.7c2.5,1.5,4.8,2.2,7.9,1.9c23.2-2.2,45.2-9.1,66.3-18.5
		c29.9-13.3,57.6-30,79.9-54.5c3.6-3.9,5.4-7.8,3.6-13.3c-6.1,5.6-11,11.9-17.2,16.7c-18,14-38.1,24.4-58.9,33.6
		c-10.1,4.4-20.4,8-31.3,9.6c-3.3,0.5-7.9,1.1-8.7-2.9c-0.7-3.4,3.8-4.3,6.5-5c22.2-5.8,42.2-16.4,61.9-27.6
		c16.1-9.2,29.9-20.9,42.5-34.4c7.7-8.3,5.6-17.3,5.5-27.8c-3.7,3.2-6.3,5.5-8.8,7.7c-12.1,10.5-25.3,19.2-40.4,24.6
		c-7.8,2.8-16.1,4.6-23,9.2c-16.4,10.9-35,15.5-53.8,20.1c-28.2,6.9-55.6,5.6-83.1-3.5c-21.3-7-40.8-17.7-60.6-28.1
		c-7.9-4.1-15.7-6.3-24.9-4.9c-13.6,2-27.4,3.5-41.1,3.8c-19.6,0.5-39.2-0.9-58.6-4.3c-37.1-6.4-73.7-15.6-108.7-29.3
		c-41.3-16.2-78.9-39.4-114.5-66c-18.9-14.2-37.3-28.9-53.3-46.3c-24.4-26.5-40.2-57.8-51.7-91.5c-3.9-11.4-7.1-23.2-5.2-35.6
		c0.4-2.6-1.1-4.2-2.5-6c-10.7-14-18.5-29.4-22.1-46.7c-0.8-3.8-1.3-7.6-1.9-11.7C1119.1,341.8,1101.6,398.4,1094.9,460.2z
		 M910,140.8c0,0.4-0.1,0.7-0.1,1.1c1,0.4,2.1,0.8,3.1,1.1c34.3,11.5,65.2,29,91.4,54c47.2,45.1,81.6,98.3,101.4,160.7
		c0.4,1.2-0.1,3.2,2.3,3.6c9.6-22.3,22.5-42.6,37-62.1c7.9-10.6,17.8-19.5,24.2-31.2c1.5-2.8,4.3-5,7.6-5.5c2.7-0.4,3.2-2,3.8-4.1
		c2.6-8.6,6.7-16.1,15.8-19.4c1.1-0.4,1.9-1.2,2.3-2.4c2.2-6.1,9.1-8.2,12-12.8c2.9-4.5,2-11.7,5.2-17c0.5-0.8,1-1.6,1.5-2.4
		c8.6-12.1,26.4-18.6,40.8-15c1.3,0.3,3.2,1.4,3.7,0.9c5-4.5,12-8.4,13.9-14c2.6-7.8,7.5-16.1,3.4-25.2c-0.6-1.3-0.1-3.6,0.7-5
		c3.4-6.2-0.8-5.5-4.7-5.5c-120.2,0-240.3,0-360.5,0C913.2,140.8,911.6,140.8,910,140.8z M1680.5,552.2c5.9-0.3,11.8-0.4,17.6-1
		c17-1.8,32.4-7.4,44.4-20.1c5.8-6.2,7.3-13.9,4-21.6c-3-6.8-9.3-9.5-16.7-9.5c-8.2-0.1-16.1,1.7-24.1,3.1
		c-24.3,4.1-48.1,4-71.4-4.8c-22-8.3-41.7-20.5-60.1-34.7c-38.2-29.4-74.5-61.1-113.6-89.3c-9.7-7-19.3-14-30.2-18.9
		c-29.9-13.4-58.3-29.6-86.6-45.8c-22-12.6-42.5-27.4-59.5-46.7c-15.6-17.7-26.9-37-24.4-61.7c0.2-2.1-0.7-2.5-2.3-3
		c-14.2-5-33.5,5.6-36.6,20.3c-2.5,11.9,1.9,22.4,8,32.2c19.2,31.1,43.9,56,78.2,70.5c37.1,15.6,73.7,32.3,109.5,50.6
		c21.7,11.1,43.6,22.4,62.4,37.8c29.4,24.3,60.1,47,90.5,70c14,10.6,28.4,20.8,45,27.1c29.5,11.1,60,14.8,91.3,10.5
		c6.4-0.9,12.7-1.7,19.1-2.4c2.3-0.3,5.5-1.1,6.3,2.1c0.9,3.4-2.2,4.4-4.6,5.4c-2.3,0.9-4.7,1.5-7.1,1.9c-21.5,3.9-43.1,4.9-64.8,2
		c-25.2-3.4-49.1-10.7-70.3-25.1c-25-16.9-49.3-35-72.7-54.1c-28.5-23.3-57-46.5-90.3-63.1c-32.8-16.4-65.5-32.9-99.5-46.6
		c-28.4-11.5-55.2-25.5-75.8-49.1c-12.9-14.9-25.2-30.1-32.1-48.9c-0.6-1.7-0.3-4.6-2.1-4.7c-2.3-0.2-3.5,2.4-4.7,4.3
		c-1.3,2.2-1.3,4.7-1.1,7.2c1,17.2,7.9,32.2,18.7,45.3c21.2,25.6,48.7,43.4,77.2,59.5c21.6,12.2,45.7,18.8,68.7,27.9
		c33.6,13.4,66.2,28.9,96.1,49.2c25,17,48.2,36.4,70.8,56.5c19.3,17.1,38.4,34.6,61.6,46.8C1624.7,544.4,1651.6,551.9,1680.5,552.2z
		 M1430.7,69.7c-16.2-0.3-28.6,3.3-40.1,10.7c-9.3,6-15.5,14.8-22.7,22.8c-6.2,6.8-6.2,6.7-0.7,13.6c2,2.5,3.8,5.2,5.7,7.8
		c9.1,12.8,18.4,25.3,30.1,36c29.6,27.1,61.4,51.2,94.7,73.6c18.8,12.7,38.6,23.7,59,33.7c2.7,1.3,5.3,3.4,8.8,0.8
		c10-7.5,20.2-14.6,30.3-21.9c11.2-8,21.6-17.2,34.5-22.6c1.2-0.5,2.7-0.8,2.7-2.5c0-1.5-1.3-2.1-2.5-2.8
		c-24.6-12.8-46.5-29.3-67.5-47.3c-16.9-14.5-33.9-28.8-48.9-45.5c-11-12.2-22.3-24.1-34.6-35.1C1464.8,78,1448.6,68.8,1430.7,69.7z
		 M1474.8,75.1c19.6,14.8,34.7,33,51.2,49.8c31.3,31.9,65.3,60.6,103.9,83.5c2.7,1.6,4.3,2.3,6-1.3c1.9-4.1,5.1-7.4,8.1-10.8
		c17.6-20.3,41.2-29.2,66.5-35c8.3-1.9,16.9-2.8,26.9-4c-12.8-9.7-19.2-22.4-27-33.8c-5.7-8.3-11.4-16.5-18.4-23.7
		c-24.5-25.3-53.6-40.9-89.3-44.4c-21.8-2.1-43.3-6-65.3-1.1C1516.1,58.9,1496.3,68,1474.8,75.1z M758.3,140.8c-3.2,0-5,0-6.9,0
		c-64.2,0-128.5,0.3-192.7-0.3c-10.5-0.1-17.8,2.7-23.9,10.8c-4,5.3-9,10.4-8.6,17.3c0.5,9.8,2.1,19.5,3.4,29.2
		c0.4,2.7,2.6,3.8,5.4,3.9c3,0.1,3.1-2,3.8-4c4.9-15.5,14.9-26.9,28.3-35.6c1.7-1.1,3.7-1.8,5.7-2.3c1.6-0.4,3,0.3,3.8,1.8
		c0.7,1.3,0.4,2.6-0.6,3.7c-1.2,1.2-2.5,2.3-3.8,3.4c-9.3,8-17.4,16.8-22.1,28.3c-6.1,14.7,1.6,36.9,15.5,44.6
		c12.7,7.1,23.2,1.2,23.6-13.3c0.1-2.1,0.1-4.2-0.1-6.2c-1.7-16.4,3.5-30.9,12-44.5c1.6-2.6,3.9-4.6,6.5-6.2
		c1.3-0.9,2.9-0.9,4.2,0.2c1.3,1.1,1.5,2.7,0.9,4.1c-0.7,1.5-1.6,3-2.5,4.4c-6.1,10.8-10.2,22.4-11,34.8
		c-1.3,20.6,16.4,33.7,35.8,26.7c8.6-3.1,11.8-10.5,7.5-18.4c-15-28.4,5-57.2,33.1-62.4c8.5-1.6,14.7,2.3,17.9,10.3
		c1.4,3.6,2.1,7.2,2,11.1c0,1.3-0.1,3.4,0.5,3.7c7.7,3.5,2.6,7.1,0.1,10.4c-3.9,5.1-6.6,10.6-7,17c-0.4,6.1,2.8,9.2,8.9,8.9
		c6.4-0.3,11.4-3.6,15.6-8.2c9.4-10.5,15.8-22.4,17.7-36.7c1.5-11.3,6.3-20.8,16.7-26.9C751.9,148.4,754.9,145.2,758.3,140.8z
		 M1442,277.2c-3.1,0.2-5.6,0.1-8,0.5c-12.1,2-16.1,10.4-10.2,21.1c0.9,1.6,2,3.2,3.2,4.7c4.7,5.9,9.5,11.7,14,17.7
		c1.4,1.8,2.8,2.2,4.8,2c12.9-1.3,25.1,2,37,6.4c7.1,2.6,14.6,4.1,22.2,3.5c8.2-0.7,12.3-7.1,9.6-14.9c-1.1-3.3-3.3-5.9-5.7-8.3
		c-7-7-15.1-12.7-23.6-17.5C1471.7,284.7,1457.5,278,1442,277.2z M1367.8,205.5c0.6-9.3,3.1-17,11-21.8c2.8-1.7,0.3-2.7-0.7-3.7
		c-8.1-8.2-16-16.5-23.5-25.2c-9.4-10.8-19.1-21.4-30.7-30c-5.2-3.9-10.8-5.9-17.3-5.7c-9.6,0.4-13.2,5.6-9,14.2
		c7.6,15.7,16.6,30.4,29.2,42.7C1338.8,187.8,1353,196.5,1367.8,205.5z M1665.9,317.9c-3-1.3-5.3-2.4-7.7-3.3
		c-29.1-10.5-58.2-20.9-87.4-31.4c-3.1-1.1-6-2.2-8.8,0.9c-2.8,3.1-2.9,6.4-1.3,10c2.6,5.6,6.4,10.2,11.5,13.7
		c25.7,17.7,54.7,28.6,84.1,40.8C1652.7,335.9,1654.8,325.7,1665.9,317.9z M78.4,239c7-20,14.8-39.3,28.4-55.5
		c13.3-15.9,27.9-30.6,45.6-42.1c-23.2-0.6-46-0.5-68.8-0.7c-4.4,0-5.3,1.3-5.2,5.4c0.2,28.1,0.1,56.2,0.1,84.3
		C78.4,233.2,78.4,236.1,78.4,239z M1487,238.9c-0.2-0.4-0.2-0.9-0.4-1c-19-12.4-36.3-27.1-54.4-40.6
		c-26.2-19.6-49.8-41.6-67.9-69.1c-3.2-4.9-6.8-9.6-11.6-13.1c-7.2-5.2-15.1-6.9-23.5-3.7c-1.9,0.7-6.3,1.8-1.6,5.1
		c14.5,10.3,26.1,23.4,37.5,36.8c9.5,11,19.4,21.8,31,30.6c26.9,20.3,55.1,38.5,85.3,53.4C1483.1,238.1,1484.7,239.9,1487,238.9z
		 M1696.5,91.3c3.4-19.3,6-37.7,6.8-56.3c0.3-6.4-3.3-9.9-9.7-9.6c-4.1,0.2-8.3,0.8-12.3,1.8c-18.6,5.1-36.2,12.9-53.4,21.5
		c-0.8,0.4-1.2,0.9-0.8,1.7c3.3,0.9,6.6,1.6,9.7,2.8c3.8,1.6,6.9,1.3,10.5-0.9c8.9-5.4,18.5-9.3,28.2-13
		c12.7-4.9,18.8-0.3,18.1,13.4c-0.1,1.3-0.2,2.6-0.5,3.9c-1.6,7.4-3.2,14.7-5,22c-0.6,2.6-0.6,4.6,1.8,6.4
		C1692.1,86.7,1693.8,88.7,1696.5,91.3z M1708.2,359.6c6,1.3,11.5-1.4,15.9-7.2c2.7-3.5,3.1-7.1,0-10.2c-7.1-7.2-16.5-9.3-25.9-11.3
		c-7.1-1.6-10.6,3.4-14.7,8c-5.7,6.4-5.4,12,2.2,16.3C1692.2,358.9,1699.4,360.2,1708.2,359.6z M1418.9,228
		c4.1,0.7,7.5,0.6,10.3-1.8c2.7-2.3,4.2-5.3,0.6-8c-8-5.7-16-11.3-24.3-16.5c-4.1-2.6-8.5-1.1-11.8,2.3c-2.8,2.9-2.2,6.4,0.1,9.3
		C1400.6,221.4,1407.5,229.2,1418.9,228z M1497.7,254.3c-0.2,3.8-0.8,7-2.6,9.6c-2.3,3.2-1.2,4.2,2,5.2c14.6,4.2,29.4,8,44.6,9.6
		c4.1,0.4,8.2,0.1,12.4,0.1C1534.5,272.2,1516.4,263.3,1497.7,254.3z M1652.3,59.2c9.1,5.2,16.7,9.6,23.8,14.9
		c1.6,1.2,2.8,1.3,3.3-0.8c1.9-7.5,4.4-14.8,5-22.6c0.3-3.2-0.9-4.8-4.3-3.4C1671.4,51.1,1662.6,54.8,1652.3,59.2z M1789,362.4
		c-0.8-0.2-1,0.7-1.2,2c-0.3,1.7-0.5,3.5-1.4,4.8c-3.1,4.8-0.7,5.6,3.7,6.1c14.7,1.6,29.4,3.4,44.2,5.2c1,0.1,2,0.5,2.1-0.9
		c0.1-1.4-1.1-1-1.9-1.3c-11-3.9-21.9-7.9-32.8-11.9C1797.7,365.3,1793.7,364,1789,362.4z M1755.1,370.9c5.3,0.6,7.5-2.8,7.4-6.3
		c-0.1-4.5-4.1-6.4-8.3-6.9c-4.2-0.5-8,3.3-7.8,7.7C1746.6,371.8,1752.2,369.7,1755.1,370.9z M696.7,394.6
		c-3.7,0.1-9.4,2.2-11.5,4.1c-3.3,3.1-1.7,6.5,0,9.2c1.8,2.9,4.7,1.6,6.9,0c3.1-2.2,5.6-5,7.8-8.1c0.9-1.2,1.9-2.5,0.9-4.1
		C699.9,394.2,698.2,394.8,696.7,394.6z M1473.8,250.6c0-4.4-3.3-7.2-8.2-7c-4.1,0.1-7.6,1.3-7.9,6.2c-0.1,2.3,7.3,7.6,10.4,7.1
		C1471.9,256.4,1473.5,253.7,1473.8,250.6z"/>
	<path class="st1" d="M1082.1,491.3c-5.4-3.3-9.1-8.5-13.9-12.5c-12.2-10.1-26.7-14.7-41.6-18.5c-13.2-3.4-26.5-6.1-39.5-10
		c-10.7-3.2-21.2-2.2-28.5,6.9c-7.5,9.5-6.6,20.4-2,31.1c5.2,12.2,14.9,19.7,26.5,25.1c2.2,1,4.4,1.9,6.5,2.9c0,0.5-0.1,1.1-0.1,1.6
		c-3.6,0-7.1-0.2-10.7,0c-10.9,0.6-21.9-1.2-32.8,1.1c-20,4.2-32.7,24.5-25.6,42.2c5,12.4,15.3,19.5,28.1,22.5
		c11.1,2.6,22.4,3.6,33.7,2c8.2-1.2,16,0.8,24.5,2.9c-5,5.3-9.6,10-12.6,15.9c-7.2,14.2-5.1,28.7,6.2,39.9c1.1,1.1,2.1,1.8,1.4,3.7
		c-2.7,7.2-0.5,13.8,3,20c4.9,8.6,11.1,16.2,17,24c1.8,2.4,4,4.8,6.9,5.8c12.6,4.6,25.6,7.7,39.1,8.4c5.6,0.3,10.3-2.5,12.9-7.7
		c1.4-2.8,2.7-3.1,5.6-2.2c27.1,8.6,54,10.5,80.4-3.1c4.2-2.2,8.5-0.5,11.5,2.1c18.3,16.3,39.2,28.8,59.7,42
		c11.1,7.1,17.5,17.2,19.7,30.3c2.6,15.4,5.9,30.8,5,46.6c-0.2,2.8,0,6.4,3.5,6.8c3.4,0.4,4.2-3.2,5.1-5.8
		c4.7-13.4,1.1-26.6-1.1-39.7c-1.2-7.1-1.6-14.6-6.2-22.3c54.5,29.4,107.2,59.1,164.5,81.5c-239.1,0-477.5,0-716.8,0
		c5.9-3.3,11.2-6.3,16.5-9.2c46.4-25.4,80-62.5,100.8-111c10.8-25.3,14.7-52,13.5-79.7c-1.3-29.2-10-55.8-26.5-79.5
		c-14-20-31.3-36.8-53.3-48.2c-1-0.5-1.9-1.1-3.7-2.1c6.9-1.9,12.9-3.8,18.1-7.5c12.2-8.6,21.4-19.5,21.6-35.3
		c0.2-15.9-10.4-28-26.5-31.4c-1.8-0.4-4,0.1-2.6-3.1c7-15.3-2.6-29.2-20.2-33.3c-4.8-1.1-9.7-1.4-14.6-1c-2,0.2-3.3,0.4-3.5-2.6
		c-0.9-10.6-8.5-17.8-19.2-18.7c-1.9-0.2-3.9-0.5-5.6,0c-15.4,4.8-31.9,2.7-47.3,7.5c-34.5,10.8-67.5,24.6-95.4,48.2
		c-17.9,15.1-31.2,33.4-34.8,57.3c-0.9,6.4-1.1,12.8,0.2,19.2c0.7,3.4,0.4,4.5-3.7,4.3c-51.9-3.1-102,5-149.9,25.6
		c-3.9,1.7-7.3,2.1-11.4,0.6c-6.8-2.4-13.3-5.2-19-9.8c-21.3-17.3-15.3-56.9,10.5-65.8c2.3-0.8,4.4-2.2,6.8-2.9
		c4-1.3,7.4-2.3,9.7,3.5c2.6,6.6,9.1,9.2,15.6,11.1c9.5,2.8,19,2.3,28.6,1c2.3-0.3,4.7-1.2,4.6-4.1c-0.1-2.5-2.4-3.2-4.4-3.7
		c-5.2-1.2-10.5-0.9-15.8-0.9c-5.8-0.1-11.3-1.3-16.3-4.2c-5.2-3-5.9-6.3-2.5-11.2c4.4-6.4,10.4-10.4,18.1-11.6
		c8.4-1.3,16.9-2.1,25.2,0.7c1.9,0.6,3.9,0.6,5-1.3c1.3-2.1,0.4-4.1-1.3-5.5c-1.1-1-2.4-2.1-3.8-2.3c-16-2.8-31.6-3.5-45.1,8
		c-3.1,2.6-5.4,5.8-7.5,9.2c-0.8,1.3-1.3,2.5-3.4,2c-8.9-2.1-17.5-4.8-24.2-11.5c-10.8-10.7-12.3-24.8-4.4-37.7
		c9.6-15.6,24.1-22.2,41.6-23.6c4.1-0.3,8.3-0.6,12.4-0.9c1.8-0.1,3.6-0.4,4.1-2.4c0.6-2.2-0.9-3.6-2.7-4.4
		c-1.3-0.6-2.9-1.2-4.3-1.2c-24-1.1-44.5,5.5-58.2,26.7c-13.1,20.2-7.5,44.1,13.1,56.3c1.1,0.7,2.2,1.4,3.8,2.3
		c-20.4,9.7-28.4,26.4-27.9,47.7c0.6,22.3,13.4,36,33.8,44.7c-2.1,1.3-3.5,2.3-5,3.1c-31.9,16.6-59.3,39-82.1,66.7
		c-20.9,25.3-35.1,54.1-40.1,86.9c-0.6,3.9-0.5,7.9,0.2,11.9c0.3,1.8,1,3.9,3.4,3.8c2.3,0,3.2-1.8,3.5-3.8c0.9-4.8,1.5-9.7,2.4-14.5
		c6.5-35.1,23.5-64.7,47.7-90.4c31.6-33.5,69.8-57,113.1-72c32.7-11.3,66.4-17.7,101.1-17.5c9.3,0.1,18.5,0.4,27.8,0.4
		c3,0,4.6,1,6.1,3.7c12.1,22.4,32.5,30.2,56.3,32c2.5,0.2,5.4-0.1,5.7-3.2c0.3-3.2-2.7-4-5.1-4.3c-9-1.3-17.9-3.1-26.2-6.8
		c-23.4-10.6-33.5-34-25.9-59.6c7-23.4,22.6-40.5,42.2-53.8c26.3-17.8,55.2-30.5,85.9-38.6c6.3-1.7,12.8-3.5,19.7-0.5
		c-1.2,2.2-3.5,2.3-5,3.4c-4.5,3.2-8.3,6.7-7.7,12.9c0.6,6.5,2.2,12.6,9,15.2c6.3,2.4,11.9,0,16.6-4.4c2.7-2.6,5.3-5.4,7.6-8.4
		c3.3-4.4,4.1-9.3,1.5-14.4c-2.6-5.1-7.5-5.1-12.3-5.2c-1.3,0-2.6,0.7-4.8-0.8c7.9-2.5,15-5.3,22.8-2.8c7.3,2.3,9.3,8.8,4.8,15
		c-1.2,1.7-2.7,3.4-1.3,5.6c1.4,2.1,3.4,1.7,5.6,1.4c9.9-1.4,19.8-3.2,29.5,1.5c11.2,5.4,12.8,16.2,3.4,24.5
		c-0.3,0.3-0.6,0.4-0.9,0.7c-1.8,1.8-5,3.2-3.7,6.3c1.4,3.1,4.8,2.6,7.6,2.3c6.5-0.7,12.8-0.4,18.6,3.1c12.4,7.4,15.5,21.2,7.3,33.7
		c-7.7,11.7-18.2,19-32.5,20.1c-4.9,0.4-8.5,1.1-10.2,7.8c-2,7.7-8.5,13.7-14.9,18.8c-16.3,13-34.6,21.4-55.4,24
		c-5.2,0.7-10.4,1.8-15.6,2.8c-2.2,0.4-5,0.9-4.7,3.9c0.3,2.7,2.9,3.2,5.2,3.2c15.2,0.4,30.3-0.9,44.5-6.7
		c19.1-7.9,36.6-18.2,48-36.4c1.3-2.1,2.4-2.1,4.5-1c52.1,27.9,82.8,80.6,78.9,141c-3.6,55.9-30,99.7-70.2,137
		c-27.3,25.3-60.4,39.7-94.1,52.9c-37,14.5-74.5,27.7-114.1,32.8c-78.9,10.2-156.1,4.4-230-27.8c-18.1-7.9-34.9-18.1-51-29.4
		c-4.2-2.9-8.5-5.7-12.9-8.2c-2-1.1-4.3-2.4-6.1-0.1c-2.1,2.7-0.1,4.8,1.8,6.3c6.7,5.2,13.7,10,20.6,15c1,0.7,2.6,0.7,2.8,2.5
		c-1.3,1-2.9,0.4-4.3,0.4c-63.7,0-127.4,0-191,0.1c-4.9,0-6.2-1-6.2-6.1c0.2-172.5,0.1-345,0.1-517.5c0-9.7,1-19.2,2.7-28.7
		c1.7-9.9,3.1-19.8,5-29.6c9.9-52.4,41.1-88.5,87.5-112.2c43.3-22.1,88.5-24.7,134.9-11.5c20.5,5.8,37,18.5,53.2,31.6
		c35.4,28.5,64.5,62.9,93.5,97.6c13.2,15.7,27.6,30.1,46.5,39c21.5,10.1,44.3,15.3,68,15.4c38,0.2,74.9-6.9,109.8-21.8
		c22.5-9.6,42.5-23.7,61.1-39.6c10.8-9.2,21.9-18,33.1-26.6c6.6-5.1,14.1-8.8,22.4-10.3c5.6-1,10.6,0.4,15.2,3.1
		c4.5,2.6,6.9,6.6,7.1,12.1c0.2,10.1-3.1,19-9.4,26.6c-15,18-33,32.6-53.4,44.2c-23.6,13.4-46.6,27.8-72.9,36.2
		c-30.5,9.7-61.5,16.2-93.3,20.1c-26,3.2-51.7,2.6-77.2-2.7c-24-5-45.2-16.2-64.2-32c-25.3-21.2-46.8-46.1-68.9-70.4
		c-13.3-14.7-24.6-31.2-39.9-44c-32.2-27-69.2-33.2-105.3-11.8c-22.8,13.5-37.3,33.4-44.9,58.9c-6.5,21.8-9.1,44.3-12.7,66.7
		c-4.2,25.9-9.8,51.5-17.8,76.6c-1.7,5.2-3.8,10.3-5.6,15.4c-0.8,2.3-1.8,5.2,1.1,6.5c2.9,1.3,4.4-1.3,5.7-3.3
		c5.5-8.3,8.4-17.7,11-27.2c8.4-30.1,14-60.7,18.3-91.5c2.4-16.8,5.7-33.5,11.8-49.5c12.7-33.3,46.8-58.9,83.1-55.7
		c18,1.6,34,8.9,47.5,20.7c18.4,16.1,32.6,36.2,48.9,54.2c22.8,25,45.3,50.3,72.7,70.4c18,13.2,38.1,21.2,59.8,25.9
		c35.5,7.6,70.6,2.3,105.8-3.2c37.4-5.9,73.2-17.1,107.2-33.5c30.8-14.9,60.7-31.6,84.2-57.4c9.4-10.3,15.9-21.8,17.3-36.1
		c1.9-19.2-15-30-30.6-28.5c-16.7,1.6-29.1,11.7-41.4,21.9c-22.9,18.9-45.5,38-72,51.9c-9.7,5.1-19.7,8.7-30.1,11.4
		c-26.2,6.8-52.4,13.2-79.7,12.9c-32-0.4-62.2-7.2-88.1-27.4c-9.1-7.1-16.9-15.7-24.2-24.6c-22-26.6-44.5-52.9-69.7-76.6
		c-12.6-11.9-25.9-23.1-40.9-33.8c60.3,0,119.8,0,180,0c-2.3,2.7-4.3,5.1-6.3,7.4c-7,7.9-9.3,17.1-7.9,27.4
		c0.9,6.9,1.9,13.8,2.9,20.8c1.3,9.5,5,13.5,14.8,14.6c3.4,0.4,2.7,2.4,3.1,4.2c2.9,13.5,8.3,25.5,20.1,33.7
		c13.8,9.6,27.3,8.1,38.1-4.6c2.5-3,3.4-0.6,4.7,0.5c11.7,9.7,24.8,11.3,38.8,6.4c14-4.9,20.1-19.8,12.9-32.7
		c-11.9-21.3,4.4-43.9,23.9-48c4.6-1,7.3,0.6,8.6,5c2.6,8.5-0.2,16.5-2.7,24.3c-1.7,5.3-3.6,10.3-3.2,15.9
		c0.8,9.5,7.3,16.2,16.8,16.8c8.4,0.6,15.8-2.1,21.8-7.7c12.4-11.4,21.1-25.2,23.6-42.2c1.6-10.8,5.3-19.7,15.3-25.6
		c5.4-3.2,10-8.2,12.7-14.2c1-2.2,2.4-2.5,4.4-2.5c31.9,0,63.9-0.3,95.8,0.3c10.5,0.2,20.8,3.8,30.8,7c54,17,97.2,49.2,132,93.5
		c31.2,39.7,53.5,83.9,68.1,132.1c1.1,3.8,1.2,7.2,0.1,11c-8.1,28.8-14.6,57.8-15.9,87.8c-0.2,5.9-2.8,11.7-1.4,17.9
		C1082.8,490.7,1082.4,491,1082.1,491.3z M665.2,430.7c-4.5-0.5-9.4,0.5-14.2,1.3c-23.2,3.9-44.9,11.9-64,25.9
		c-9.1,6.7-15.5,15.5-17.9,26.7c-2.8,12.8,0.8,23,10.2,29c5,3.2,10.6,4.2,16.3,4.2c28.3,0.3,53.8-8.6,76.4-25.5
		c8.3-6.2,14.9-13.9,19.5-23.2C700.5,450.8,687.8,427.1,665.2,430.7z M963.7,387.4c0-1.5,0.1-3,0-4.5c-1.4-19-7.7-35.2-24.8-45.8
		c-11.2-7-23.4-9.8-36.2-9c-13,0.8-25.4,4.4-34.5,14.7c-2.2,2.5-5.9,6-2.4,9.2c3.1,2.9,5.7-1.3,7.9-3.2c14.5-12,31-14.6,48.5-9.4
		c20,5.9,30.1,20.3,31.8,40.9c2.1,25.8-10.5,52.4-43.9,54.8c-2.6,0.2-6-0.4-6,3.4c0,3.6,3,5.1,6.3,5.2c5.5,0.2,10.9,0.1,16.2-1.7
		C949.5,434.3,963.9,413.3,963.7,387.4z M128.4,510.2c0.3,1.9-0.3,4.1,1.8,5.1c2.2,1,3.6-0.8,4.7-2.2c1.6-1.9,3-3.9,4.1-6.1
		c2.5-4.5,4.5-9.1,7.6-13.2c4.9-6.3,4.8-6.4,9.7-0.2c4.1,5.2,8.2,10.4,12.4,15.5c1,1.3,2.3,3,4.2,2c1.7-0.9,1.5-2.9,1.2-4.6
		c-0.3-1.7-0.9-3.3-1.5-4.9c-2.3-6.5-6.4-12-10.9-17.1c-2.2-2.4-2.3-3.8,0.6-5.6c4.4-2.6,8.7-5.3,12.9-8.1c1.9-1.3,3.8-3,2.3-5.6
		c-1.2-2.3-3.5-1.9-5.5-1.4c-5.9,1.5-11.4,4.2-16.2,7.9c-2.8,2.2-4.7,2.3-7.6-0.2c-5.9-5-12.7-8.8-20.5-10.5
		c-2.3-0.5-4.7-0.6-5.8,2.1c-1,2.7,0.9,4.2,2.9,5.4c4.4,2.6,8.9,5,13.2,7.7c6.4,4,6.4,4.1,1.8,9.7
		C134.1,493.2,130,501.1,128.4,510.2z M890,381.9c7.4-0.1,14.6,1.3,21.7,3.2c3.1,0.8,3.6,1.9,2.1,4.7c-2.7,5.1-6.1,9.5-10.2,13.4
		c-1.3,1.3-2.8,2.9-1.7,4.9c1.1,1.9,3.4,1.4,5.2,1.1c4.6-0.9,7.5-4.2,10-7.8c2.1-3.1,3.4-8.2,6.1-9.1c3.3-1.1,6.4,3.6,10,5.2
		c0.3,0.1,0.7,0.4,1,0.5c1.8,0.6,3.8,1.3,5.3-0.4c1.6-1.9,0.9-3.9-0.2-5.8c-2-3.3-5-5.7-8.3-7.5c-3.7-2-4.8-4.5-3.6-8.7
		c1.7-5.8,0.5-11.6-1.4-17.2c-0.7-2-2.1-3.8-4.6-3.2c-2.2,0.5-2.7,2.5-2.6,4.5c0.1,2.6,0.4,5.3,0.6,7.9c0.5,8.6-0.2,9.1-8.1,7.2
		c-8.9-2.1-17.8-3.4-26.8-0.5c-2.2,0.7-4.3,2-4,4.7c0.4,2.9,2.8,3.1,5.2,3.1C887,381.9,888.5,381.9,890,381.9z M752.9,480.6
		c8-0.4,16.4-2.8,23.3-9.1c7.7-7.1,5.8-17.3-3.8-21.3c-9.3-4-18.1-1.8-26.7,2.1c-7.5,3.3-11,10.1-9.4,17.3
		C737.8,476.6,743.4,480.6,752.9,480.6z M737.1,408c-7.9,0.9-16.6,2.6-24.3,7.5c-6.6,4.1-9.4,10-7.9,16c1.4,5.6,8.2,10.5,15.2,10.8
		c10.3,0.6,25.2-9.1,28.9-18.7C752.6,414.1,748.3,407.9,737.1,408z"/>
	<path class="st1" d="M1197.5,365.7c2.8,1.1,4.8,2.1,6.9,2.7c1.8,0.5,3.4-0.1,4.4-1.8c1-1.6,0.4-3-0.5-4.2c-0.9-1.2-2-2.3-3.2-3.2
		c-17.4-14.5-27.3-33.5-32.1-55.2c-2-8.9-2.9-18,1.5-26.6c1.2-2.3,2.1-4.8,5.1-6c2.4,9.9,5.2,19.4,11.5,27.4
		c2.5,3.1,5.8,7.5,9.6,4.5c3.6-2.8-0.2-6.6-2.3-9.8c-6.8-10.7-12.6-21.7-8.1-35c1.3-3.7,3.2-7.1,7.2-9.7c1.5,10.7,4.4,20.4,8.8,29.6
		c7.9,16.2,20,29,33.7,40c26.7,21.4,53.9,42,87.1,53c14,4.6,27.6,10.3,41.2,15.8c45.5,18.2,88.2,41,126.3,72.3
		c19.1,15.7,37.6,32.2,56.3,48.3c24,20.7,50.1,37.7,80.9,46.3c28.1,7.9,56.5,10.1,85,2.5c12.3-3.3,23-9.7,31.7-19
		c6.9-7.3,9.7-16,7.4-26.1c-2.6-11.5-10.7-18.6-22.5-19.8c-10.7-1.1-21.1,1.5-31.5,2.9c-16.4,2.2-32.6,3.5-49-0.3
		c-20-4.6-37.9-13.8-54.8-25c-33.3-22.1-62.5-49.4-94.2-73.5c-19.8-15.1-39-31-60.6-43.8c-1.9-1.1-4-2.2-6-3.2
		c-6.4-3.2-6.5-3.7-2.4-9.4c3.3-4.6,7.7-7,13.4-7.4c10.3-0.8,19.9,1.9,29.3,5.4c8.6,3.2,17.4,4.7,26.6,4.4
		c8.3-0.2,14.8-3.5,18.2-11.1c3.4-7.7,2.1-15.4-3-21.9c-8-10-18.6-17.2-29.7-23.3c-15.9-8.8-32.3-16.6-51.1-16.5
		c-3.6,0-7.1,0.6-10.6,1.8c-15.6,5.3-20.4,17.8-12.4,32.3c4.2,7.5,10.3,13.5,15.7,20.1c2.2,2.8,3.2,4.9-0.4,7.3
		c-1.5,1-2.4,2.9-3.7,4.2c-1.9,2-1.7,6.3-4.6,6.4c-2.5,0.1-5.1-2.1-7.7-3.3c-35.7-17.4-71.1-35.2-102.4-60
		c-17-13.5-31.8-29-40.3-49.5c-3.2-7.6-3.9-15.8-3.7-23.9c0.2-6.4,3-11.4,7.9-15.1c12.9,35.8,35.9,63.2,66.5,84.6
		c2.1,1.5,4.6,2.7,7,3.6c2.4,0.9,5.5,1.9,6.9-1.3c1.3-2.9-1.2-4.4-3.3-5.7c-9.2-5.7-17.7-12.3-25.4-19.8
		c-15.2-15.1-28.5-31.7-37.9-51.2c-2.8-5.9-4.1-12.1-4.9-18.5c-0.3-2.8-0.2-5.5,1.7-9.4c3,3.4,5.2,6.5,8,9c2.1,1.9,5.2,3.2,7.5,0.3
		c2.1-2.6,0.2-5-1.7-6.9c-4.5-4.6-8.9-9.2-11.3-15.4c-2-5.4-1.7-10.3,1.7-15.1c2.3,1.5,3.1,4,4.2,6c13.5,25.6,34,43.9,58.4,58.7
		c17.2,10.4,35.5,18.5,53.1,27.9c19.8,10.6,39.4,21.6,59.8,31.2c24.2,11.4,49.7,17.8,76.1,20.7c3.9,0.4,4.4,1,3.2,4.9
		c-3,9.8-0.9,19.4,2,28.9c9.7,31.6,30.6,55.3,54.8,76.3c22.7,19.7,47.3,37,73.2,52.4c8,4.8,16.7,7.9,25.3,11.4c2.6,1,5.4,2,6.9-1.2
		c1.8-3.6-1.1-5.3-3.7-6.4c-17.1-7-32.7-16.5-47.8-26.9c-23.3-16.1-46.5-32.5-65.9-53.4c-17-18.4-31.1-38.5-36.1-63.7
		c-0.4-1.8-1-3.6-0.1-6.4c6.7,9.3,15.3,15.5,24.8,20.6c51.2,27.3,104.5,48,162.7,54.8c36.2,4.2,72.3,9.1,108.6,13
		c6.8,0.7,13.6,1.1,20.3,1.6c1.5,0.1,3.1,0.1,4.5-0.2c2.9-0.6,6.8-0.6,7.4-4.1c0.6-3.4-3.4-3.6-5.6-4.5
		c-22.9-9.9-46.6-17.7-70.2-25.7c-44.2-15-87.9-31.1-131.7-47.3c-30.6-11.3-61.4-22.1-92.2-33.2c-3-1.1-5.9-2.2-8.8-3.4
		c0.1-2.2,1.9-2.5,3-3.3c13.7-10,27.5-20,41.2-30.1c15-11.1,31.4-14.7,49.8-10.8c36.7,7.8,74,13.6,109.4,26.8
		c37,13.8,71.4,32.6,101.3,59c1,0.9,2,1.7,3.1,2.4c1.9,1.2,3.9,1.7,5.7,0.1c2.1-1.9,1.6-4.1,0.2-6.1c-2.9-4.3-6.9-7.5-10.9-10.7
		c-36.5-28.9-77.2-49.4-122-61.8c-29.9-8.3-60.2-14.4-90.7-19.8c-5.8-1-11.7-1.6-17.5-0.7c-4,0.6-4.5-1.1-3.8-4.4
		c1-4.6,3.8-8.2,6.7-11.6c8.8-10.4,19.7-18.1,32.2-23.5c29.9-13,61.3-15.2,93.3-13.5c18.5,1,36.3,4.5,53.3,12
		c8.1,3.6,16,7.7,23.8,11.9c5.9,3.2,10.7,5.4,18.1,1.2c14.5-8.1,30.6-12.8,46.5-17.6c7.4-2.3,14.8-4.5,22.4-6.2
		c12.6-2.8,18.3,2.2,17.9,15.1c-0.2,7.7-3.1,14.7-5.2,21.9c-3.9,13.4-8,26.8-12.1,40.1c-0.9,2.8-0.7,5.5-0.1,8.3
		c5.5,24.9,3.2,48.8-9.9,71.1c-1.7,2.9-2.2,5.5-1.3,9c5,20.2,12.8,39.5,18,59.6c8,30.8,11.5,61.9,9.3,93.7
		c-1.3,18.6-3.9,36.7-10.7,54.2c-12.1,31.4-33.9,54.5-61.2,73c-5.1,3.5-10.6,6.5-15.9,9.7c-0.3-0.7-0.7-1.1-0.6-1.3
		c1-2.4,4.8-4.5,1.7-7.3c-2.6-2.4-5.3,0.3-7.6,1.8c-2.8,1.9-5.5,4-8,6.3c-15.2,14.7-33.4,23.7-53.9,28.6
		c-20.8,4.9-41.7,9.7-63.3,6.2c-22.6-3.6-43.7-11.7-63.9-22.4c-5.9-3.1-12-6.1-17.7-10.2c4,0,8,0.1,12,0c2.8-0.1,7,1,7.2-3.3
		c0.2-3.9-3.9-4-6.8-4.6c-13.3-3-26.7-1.3-40,0.1c-27,2.9-54.1,6.1-81.4,3.4c-29.6-3-58.4-10-86.9-18c-24.6-6.9-48.6-15.4-71.3-27.2
		c-28.1-14.7-55.4-30.9-80.9-49.9c-15.5-11.5-30.7-23.3-44.6-36.6c-19.3-18.4-33.8-40-45.5-63.8c-7.7-15.7-14-31.8-17.9-48.8
		C1198.4,373.6,1198.1,369.9,1197.5,365.7z M1520.2,564.4c1.5,0,2.4,0.1,3.4,0c2.9-0.2,6.2-0.3,6.5-4c0.2-3.6-3.2-3.6-5.7-4.1
		c-0.9-0.2-1.9-0.3-2.8-0.4c-10.3-1.2-20.5-3.3-30.4-6.6c-32.1-10.7-63.4-23.4-92.9-40.1c-20.8-11.7-40.7-24.5-59.6-39.1
		c-13.8-10.6-26.5-22.4-39.3-34.2c-14.7-13.5-27.7-28.3-39.8-44.1c-8.6-11.2-14-23.6-15.7-37.7c-0.4-3.2-0.6-6.3,1.3-9.3
		c1.5-2.3,1.5-4.8-1.2-6.4c-2.6-1.5-4.8-0.2-6.5,1.8c-2.6,3-3.5,6.7-3.1,10.6c1.1,13.3,4.3,26,11.6,37.5c6.5,10,13.7,19.5,21.6,28.3
		c31.7,35.1,67.4,65.4,107.8,90.2c29.4,18,60.7,32.2,92.9,44.4C1485.2,557.5,1502.4,563.1,1520.2,564.4z M1938,209.7
		c0-2.5,0.1-4.9,0-7.4c-0.6-14.6-6.7-18.9-20.6-14.3c-10.9,3.6-21.6,7.8-31.8,13.2c-2.2,1.2-4.9,1.5-5,4.6c-0.1,3.2,2.4,4.5,4.7,5.8
		c8.4,4.7,16.6,9.7,24.5,15.2c4.6,3.3,9.3,6.6,14.3,9.2c6.9,3.6,11.9,0.6,12.6-7.1C1937.2,222.5,1937.6,216.1,1938,209.7z
		 M1686.2,601.1c19.2-0.1,34.6-4.1,48.3-13.9c2.9-2.1,8.3-4.6,5.2-9.1c-3.1-4.6-7.2-0.3-10.2,1.7c-17.2,11-35.8,14.2-55.8,10.3
		c-13.7-2.7-26.9-7.1-40-12.1c-3.2-1.2-8-5.1-10-1c-1.8,3.8,3.4,6.7,6.7,9.2c0.1,0.1,0.3,0.2,0.5,0.3
		C1649.4,594.5,1668.5,599.9,1686.2,601.1z M1551.7,347c-2.3,0.4-3.3,2-3.4,4.3c-0.3,3.6,0.3,7.2,1.6,10.6
		c10.1,25.9,25.1,48.1,48.9,63.5c2.7,1.7,5.7,3,8.6,4.2c2.1,0.8,4.6,1.4,6.1-1.1c1.7-2.9-0.6-4.6-2.4-6.1c-2.1-1.7-4.3-3-6.5-4.5
		c-16.5-11-29.4-25.2-38.3-43c-3.6-7.3-7.2-14.5-9.9-22.2C1555.5,350.3,1554.6,347.9,1551.7,347z M1764.5,518.9
		c0.2,2.5-0.1,6,3.7,6.4c3.8,0.4,4.4-3,4.8-5.8c0.7-5.2,1.2-10.4,0-15.7c-3.3-15.5-19-29.3-32.9-28.8c-2.4,0.1-5.4,0-5.9,3.1
		c-0.4,2.9,2.5,3.4,4.6,4.1c4.1,1.4,8.4,2.3,12.1,4.8C1762.3,494.6,1766.6,505.2,1764.5,518.9z M1785.6,485.9
		c0-7.5-11.7-18.5-19.1-18.1c-2.1,0.1-3.7,0.9-4.3,3c-0.5,2,0.6,3.5,2.2,4.1c6.5,2.6,10.5,7.6,13.8,13.5c0.9,1.7,2.5,3.1,4.6,2.4
		C1785.2,490.2,1785.6,488,1785.6,485.9z"/>
	<path class="st1" d="M1775.6,736.9c54.2-10.3,100.5-33.6,140.3-70.6c1.2,0.7,0.4,2.4,0.4,3.7c0,53.3,0,106.6,0.1,159.8
		c0,3.2,0.4,6.5-4.6,5.1c-0.1-0.3-0.4-0.7-0.2-0.9c1.2-2.4,4.3-4.8,1.3-7.4c-2.8-2.5-5.2,0.3-7.4,1.9
		c-21.4,15.1-45.5,24.2-70.2,32.2c-38.2,12.3-77.5,16.3-117.2,17.5c-23.4,0.8-46.8,1.6-70.2,0.2c-21.3-1.3-42.5-3.9-63.5-7.9
		c-44.8-8.5-88.8-20.1-131.4-36.4c-40.6-15.5-79.9-33.9-118.4-54.1c-28.1-14.8-56-29.8-83.3-45.9c-19.9-11.7-39.2-24.2-57.5-38.2
		c-1.5-1.1-3.2-2-4-3.9c2.1-1.6,4.3-3.1,6.2-4.9c1.9-1.8,3.1-4,1.4-6.6c-1.6-2.4-4-1.8-6.1-1c-1.9,0.7-3.7,1.8-5.7,2.6
		c-1.7,0.7-3.3,1.9-5.5,1c1.5-2.6,3.1-5.2,4.4-7.9c1-2,1.1-4.1-0.8-5.7c-1.9-1.6-3.9-1-5.7,0.3c-1.1,0.8-2.1,1.6-3,2.6
		c-10.2,11.8-23.7,17.3-38.8,18.7c-26.6,2.4-51.2-2.8-72-20.7c-1.3-1.1-2.6-2.2-4-3.1c-2-1.4-4.2-3.2-6.7-1.7
		c-2.5,1.5-1.5,4-0.5,6.1c0.7,1.5,0.1,2.1-1.2,2.4c-1.1,0.2-2.3,0.3-3.3,0.6c-2.7,0.7-6.6,0.8-6.4,4.3c0.3,4,4.4,3.9,7.6,4.3
		c0.6,0.1,1.2,0.1,1.7-0.1c7.8-3.7,13.4,0.5,18.9,5.1c1.3,1.1,2.9,1.9,2.3,4c-0.6,2-1.9,3.2-3.9,3.6c-2.8,0.6-5.6,0.2-8.4-0.4
		c-6.4-1.4-12.9-3-19.4-4.2c-5.5-1.1-9.8-3.5-13-8.2c-4.5-6.7-9.6-13.1-13.9-20c-4.6-7.3-3.7-9.8,1.5-16.6
		c8.2-10.8,19.4-13.8,31.9-13.9c8.5-0.1,17,0.8,25.5,0.8c3.2,0,8.2,0.6,8.5-3.5c0.3-4.7-4.9-4.5-8.2-4.9
		c-14.3-1.7-28.5-3.2-42.8,0.3c-7.2,1.8-13.5,4.8-18.3,10.6c-2.2,2.6-3.9,2.2-5.9,0c-5.6-6.2-6.5-13.6-4.4-21.2
		c4.2-15.4,19.5-26.3,35.4-25.4c10.6,0.6,21.1,1.4,31.7,2.1c2.5,0.2,5.4,0.2,5.7-3.1c0.3-2.8-2.3-3.8-4.5-4.3
		c-15.3-3.9-30.6-6.7-46.4-3.5c-2.2,0.4-4.1,0-6.1-0.5c-13.9-3.6-27.7-6.4-42.5-4.6c-11.1,1.3-22.8,0.2-33-5.9
		c-10.2-6-14.4-14-12.4-22.6c2.3-9.9,10.9-17.3,21.8-18.6c2.2-0.3,4.5-0.3,6.8-0.2c19.7,0.8,39.3-1.2,58.9-2.2
		c7.1-0.4,13.3,1.4,19.4,5.1c11.2,6.7,22.5,13.2,34.7,17.9c3.5,1.4,8.3,4.6,10.6,0.2c2.2-4.2-3.1-6.2-6.1-7.9
		c-16.2-9.3-32.9-17.7-48.6-27.9c-6-3.9-13.1-4.7-20.1-5.3c-11.9-1.1-23-4.7-32-13c-7.5-7-12.1-15.3-10.6-26.1
		c0.8-6,4.6-8.8,10.2-9.8c2.4-0.4,4.9-0.6,7.3,0.1c19.5,5.9,39.7,9.3,59.1,15.7c10.5,3.5,19.3,9.4,27,17.1
		c10.6,10.4,22.5,18.9,35.3,26.5c1.3,0.8,2.7,1.4,4.1,1.9c2,0.6,4.3,1.2,5.7-0.9c1.6-2.4-0.6-3.8-1.9-5.2
		c-7-7.6-14.5-14.9-17.4-25.4c-3.2-11.5,3.4-21.6,14.7-22.7c5.4-0.5,10,1.1,12.5,6c10.8,20.9,29.6,32.3,49.9,41.7
		c12.9,6,25.2,12.6,32.6,25.3c10,17.1,15.2,35.3,10,55.2c-0.7,2.6-2.3,6,1,7.6c3.5,1.6,5.4-1.6,7-4.2c2.4-4,3-8.6,2.9-13.1
		c-0.1-3.8,1.2-3.9,4.3-2.7c12.5,4.8,24.9,9.8,37.6,14.1c46.1,15.5,93.9,24.2,141.2,34.6c30.8,6.8,61.8,12.6,92.9,17.9
		c31.1,5.4,62.2,10.4,92.8,18.2c58.5,14.8,113.3,38.2,164.7,69.8c10.1,6.2,19.7,13.4,29,20.7c1.2,0.9,2.4,1.8,3.7,2.7
		c1.5,1,3.2,1.3,4.7-0.1c1.5-1.4,1.3-3.1,0.5-4.7c-1.4-3-3.7-5.2-6.2-7.2C1785.2,744.5,1780.9,741.1,1775.6,736.9z"/>
	<path class="st2" d="M1094.9,460.2c6.7-61.8,24.3-118.4,67.1-165.3c0.7,4.1,1.2,7.9,1.9,11.7c3.6,17.3,11.4,32.7,22.1,46.7
		c1.4,1.8,2.9,3.4,2.5,6c-1.9,12.4,1.3,24.1,5.2,35.6c11.4,33.7,27.3,65,51.7,91.5c16.1,17.5,34.4,32.2,53.3,46.3
		c35.6,26.6,73.2,49.9,114.5,66c35,13.7,71.5,22.8,108.7,29.3c19.4,3.4,39,4.7,58.6,4.3c13.7-0.3,27.5-1.8,41.1-3.8
		c9.2-1.3,17,0.8,24.9,4.9c19.7,10.3,39.2,21.1,60.6,28.1c27.5,9,54.9,10.4,83.1,3.5c18.8-4.6,37.3-9.3,53.8-20.1
		c6.9-4.6,15.2-6.4,23-9.2c15-5.4,28.3-14.1,40.4-24.6c2.6-2.2,5.1-4.4,8.8-7.7c0.1,10.5,2.2,19.6-5.5,27.8
		c-12.6,13.5-26.4,25.2-42.5,34.4c-19.7,11.3-39.7,21.8-61.9,27.6c-2.7,0.7-7.2,1.6-6.5,5c0.8,4,5.3,3.4,8.7,2.9
		c10.9-1.6,21.2-5.2,31.3-9.6c20.8-9.1,40.9-19.6,58.9-33.6c6.3-4.9,11.1-11.2,17.2-16.7c1.8,5.5,0,9.4-3.6,13.3
		c-22.4,24.5-50.1,41.2-79.9,54.5c-21.1,9.4-43.1,16.3-66.3,18.5c-3.1,0.3-5.4-0.4-7.9-1.9c-19.5-11.5-39.4-22.3-60.1-31.7
		c-43.7-19.9-89-34.8-136.1-43.7c-44.1-8.3-88.5-15.5-132.6-24c-47.1-9.1-94-19-140.2-31.8c-20.9-5.8-41.1-13.9-61.3-22
		c-2.2-0.9-2.9-2.2-3.4-4.5c-3.8-16.9-9.7-32.8-22.6-45.4c-5.5-5.4-11.8-9.3-18.6-12.7c-9.3-4.6-18.6-9.3-27.5-14.6
		c-9.5-5.6-17.5-12.6-22.9-22.2C1124.8,458.7,1116.5,452.4,1094.9,460.2z"/>
	<path class="st1" d="M910,140.8c1.6,0,3.3,0,4.9,0c120.2,0,240.3,0,360.5,0c3.9,0,8.1-0.7,4.7,5.5c-0.8,1.4-1.3,3.6-0.7,5
		c4,9.1-0.8,17.5-3.4,25.2c-1.9,5.6-9,9.5-13.9,14c-0.5,0.5-2.4-0.6-3.7-0.9c-14.4-3.7-32.1,2.8-40.8,15c-0.5,0.8-1,1.6-1.5,2.4
		c-3.2,5.3-2.3,12.5-5.2,17c-3,4.6-9.8,6.7-12,12.8c-0.4,1.1-1.1,2-2.3,2.4c-9.1,3.3-13.2,10.8-15.8,19.4c-0.6,2-1.1,3.7-3.8,4.1
		c-3.3,0.5-6.1,2.7-7.6,5.5c-6.4,11.7-16.3,20.7-24.2,31.2c-14.5,19.5-27.4,39.8-37,62.1c-2.5-0.4-2-2.4-2.3-3.6
		c-19.8-62.4-54.2-115.6-101.4-160.7c-26.3-25.1-57.1-42.5-91.4-54c-1-0.4-2.1-0.7-3.1-1.1C909.9,141.5,909.9,141.1,910,140.8z
		 M1069.8,179.1c-7.6-0.1-13,6-11.8,13.9c1.3,8.9,4.5,17.1,9,24.9c1.6,2.8,3.9,5.1,6.8,6.7c2.5,1.3,5.1,1.5,7.5-0.3
		c2.6-2,3-4.8,2.2-7.7c-0.6-2.3-1.8-4.8-4.6-2.1c-2.2,2.1-3.3,0.7-4.3-1c-3.8-6.6-6.6-13.6-7.9-21.1c-0.3-1.5-0.1-3.1,1.3-4.1
		c1.7-1.3,3.3-0.4,4.7,0.6c3.9,2.7,7.2,6.1,9.9,10c4.9,7.1,7.8,15,9.3,23.5c0.4,2.1,1.1,4.3,3.7,4.3c2.8,0,3.1-2.4,3.3-4.4
		c0.2-2,0.5-4.2,0.1-6.2c-2.8-13.8-9.5-25.3-20.8-34C1075.7,180.3,1073,179,1069.8,179.1z"/>
	<path class="st3" d="M1680.5,552.2c-28.9-0.3-55.8-7.8-81.3-21.2c-23.2-12.2-42.3-29.7-61.6-46.8c-22.7-20-45.8-39.5-70.8-56.5
		c-29.9-20.4-62.5-35.9-96.1-49.2c-23-9.1-47.1-15.8-68.7-27.9c-28.5-16.1-56-33.9-77.2-59.5c-10.8-13.1-17.7-28.1-18.7-45.3
		c-0.1-2.4-0.2-4.9,1.1-7.2c1.2-1.9,2.4-4.5,4.7-4.3c1.8,0.1,1.5,3.1,2.1,4.7c7,18.8,19.2,34.1,32.1,48.9
		c20.6,23.7,47.3,37.6,75.8,49.1c34,13.8,66.7,30.2,99.5,46.6c33.3,16.7,61.8,39.8,90.3,63.1c23.4,19.1,47.6,37.2,72.7,54.1
		c21.2,14.4,45.1,21.7,70.3,25.1c21.7,2.9,43.3,1.9,64.8-2c2.4-0.4,4.8-1,7.1-1.9c2.4-0.9,5.5-2,4.6-5.4c-0.8-3.2-4-2.3-6.3-2.1
		c-6.4,0.7-12.7,1.5-19.1,2.4c-31.3,4.4-61.8,0.7-91.3-10.5c-16.6-6.3-31-16.5-45-27.1c-30.4-23-61.1-45.7-90.5-70
		c-18.7-15.5-40.6-26.7-62.4-37.8c-35.8-18.4-72.4-35-109.5-50.6c-34.3-14.5-59-39.4-78.2-70.5c-6.1-9.8-10.5-20.2-8-32.2
		c3.1-14.7,22.4-25.3,36.6-20.3c1.6,0.6,2.5,0.9,2.3,3c-2.5,24.8,8.9,44,24.4,61.7c16.9,19.3,37.5,34.1,59.5,46.7
		c28.3,16.3,56.7,32.4,86.6,45.8c10.9,4.9,20.6,11.9,30.2,18.9c39.1,28.2,75.4,59.9,113.6,89.3c18.5,14.2,38.2,26.4,60.1,34.7
		c23.4,8.8,47.2,8.9,71.4,4.8c8-1.3,15.9-3.1,24.1-3.1c7.5,0.1,13.7,2.7,16.7,9.5c3.4,7.7,1.9,15.4-4,21.6
		c-12,12.7-27.4,18.4-44.4,20.1C1692.3,551.8,1686.4,551.9,1680.5,552.2z"/>
	<path class="st1" d="M1430.7,69.7c17.9-1,34.1,8.3,48.8,21.4c12.3,10.9,23.6,22.9,34.6,35.1c15,16.6,32,31,48.9,45.5
		c21,18,42.9,34.5,67.5,47.3c1.2,0.6,2.5,1.3,2.5,2.8c0,1.7-1.6,2-2.7,2.5c-12.9,5.4-23.3,14.6-34.5,22.6
		c-10.1,7.3-20.3,14.4-30.3,21.9c-3.5,2.6-6.1,0.5-8.8-0.8c-20.4-9.9-40.1-21-59-33.7c-33.2-22.3-65.1-46.5-94.7-73.6
		c-11.6-10.7-21-23.2-30.1-36c-1.9-2.6-3.7-5.3-5.7-7.8c-5.5-6.9-5.5-6.8,0.7-13.6c7.2-7.9,13.4-16.8,22.7-22.8
		C1402.1,73.1,1414.5,69.5,1430.7,69.7z"/>
	<path class="st1" d="M1474.8,75.1c21.5-7.1,41.3-16.2,62.6-20.9c22-4.9,43.5-1,65.3,1.1c35.6,3.5,64.7,19.1,89.3,44.4
		c7,7.2,12.7,15.4,18.4,23.7c7.9,11.5,14.2,24.1,27,33.8c-10.1,1.1-18.6,2.1-26.9,4c-25.3,5.8-48.8,14.7-66.5,35
		c-3,3.4-6.2,6.7-8.1,10.8c-1.7,3.7-3.3,2.9-6,1.3c-38.7-22.9-72.6-51.6-103.9-83.5C1509.5,108.1,1494.4,89.9,1474.8,75.1z"/>
	<path class="st1" d="M758.3,140.8c-3.4,4.4-6.4,7.6-10.1,9.8c-10.4,6-15.2,15.5-16.7,26.9c-1.9,14.2-8.3,26.1-17.7,36.7
		c-4.2,4.7-9.1,8-15.6,8.2c-6.1,0.3-9.3-2.8-8.9-8.9c0.4-6.4,3.1-11.9,7-17c2.5-3.3,7.6-6.9-0.1-10.4c-0.6-0.3-0.5-2.4-0.5-3.7
		c0.1-3.8-0.6-7.5-2-11.1c-3.1-8-9.4-11.9-17.9-10.3c-28.1,5.3-48.1,34-33.1,62.4c4.2,8,1,15.4-7.5,18.4c-19.4,7-37.1-6.1-35.8-26.7
		c0.8-12.4,4.9-24,11-34.8c0.8-1.5,1.8-2.9,2.5-4.4c0.6-1.5,0.5-3-0.9-4.1c-1.3-1.1-2.9-1-4.2-0.2c-2.6,1.6-4.9,3.6-6.5,6.2
		c-8.5,13.6-13.6,28.1-12,44.5c0.2,2.1,0.2,4.1,0.1,6.2c-0.4,14.6-10.9,20.4-23.6,13.3c-13.9-7.7-21.6-29.9-15.5-44.6
		c4.8-11.5,12.9-20.3,22.1-28.3c1.3-1.1,2.6-2.2,3.8-3.4c1-1,1.2-2.4,0.6-3.7c-0.8-1.5-2.2-2.3-3.8-1.8c-2,0.5-4,1.2-5.7,2.3
		c-13.4,8.7-23.4,20.1-28.3,35.6c-0.6,2-0.7,4-3.8,4c-2.9-0.1-5.1-1.2-5.4-3.9c-1.4-9.7-2.9-19.4-3.4-29.2c-0.4-7,4.6-12,8.6-17.3
		c6.1-8.2,13.4-10.9,23.9-10.8c64.2,0.6,128.5,0.3,192.7,0.3C753.3,140.8,755.1,140.8,758.3,140.8z"/>
	<path class="st4" d="M1442,277.2c15.5,0.9,29.7,7.6,43.4,15.2c8.6,4.8,16.6,10.5,23.6,17.5c2.4,2.4,4.6,5,5.7,8.3
		c2.6,7.8-1.4,14.2-9.6,14.9c-7.7,0.7-15.1-0.8-22.2-3.5c-12-4.4-24.1-7.7-37-6.4c-2,0.2-3.5-0.2-4.8-2c-4.6-6-9.4-11.8-14-17.7
		c-1.2-1.5-2.3-3-3.2-4.7c-5.9-10.6-1.8-19.1,10.2-21.1C1436.4,277.3,1438.9,277.3,1442,277.2z"/>
	<path class="st5" d="M1367.8,205.5c-14.8-9-29-17.6-41.1-29.5c-12.6-12.4-21.6-27.1-29.2-42.7c-4.2-8.7-0.6-13.9,9-14.2
		c6.5-0.2,12.1,1.8,17.3,5.7c11.6,8.6,21.4,19.1,30.7,30c7.5,8.7,15.4,17.1,23.5,25.2c1,1,3.5,2,0.7,3.7
		C1370.9,188.5,1368.4,196.1,1367.8,205.5z"/>
	<path class="st5" d="M1665.9,317.9c-11.1,7.8-13.1,18-9.5,30.6c-29.4-12.2-58.4-23.1-84.1-40.8c-5.1-3.5-8.9-8.1-11.5-13.7
		c-1.6-3.5-1.6-6.8,1.3-10c2.8-3.1,5.7-2,8.8-0.9c29.1,10.5,58.2,20.9,87.4,31.4C1660.6,315.5,1662.9,316.6,1665.9,317.9z"/>
	<path class="st1" d="M78.4,239c0-2.9,0-5.8,0-8.7c0-28.1,0.1-56.2-0.1-84.3c0-4.1,0.8-5.4,5.2-5.4c22.8,0.2,45.6,0.1,68.8,0.7
		c-17.7,11.4-32.3,26.2-45.6,42.1C93.3,199.7,85.4,219.1,78.4,239z"/>
	<path class="st1" d="M1487,238.9c-2.4,1-4-0.8-5.7-1.6c-30.2-15-58.4-33.2-85.3-53.4c-11.6-8.8-21.5-19.5-31-30.6
		c-11.5-13.3-23.1-26.5-37.5-36.8c-4.7-3.3-0.3-4.4,1.6-5.1c8.5-3.2,16.3-1.6,23.5,3.7c4.8,3.5,8.4,8.2,11.6,13.1
		c18.1,27.5,41.7,49.5,67.9,69.1c18.1,13.6,35.4,28.2,54.4,40.6C1486.8,238,1486.9,238.5,1487,238.9z"/>
	<path class="st1" d="M1696.5,91.3c-2.7-2.6-4.4-4.6-6.5-6.1c-2.4-1.8-2.5-3.8-1.8-6.4c1.8-7.3,3.4-14.7,5-22
		c0.3-1.3,0.4-2.6,0.5-3.9c0.7-13.7-5.3-18.2-18.1-13.4c-9.7,3.7-19.3,7.6-28.2,13c-3.7,2.2-6.7,2.5-10.5,0.9
		c-3.1-1.3-6.5-1.9-9.7-2.8c-0.3-0.9,0.1-1.4,0.8-1.7c17.2-8.6,34.8-16.4,53.4-21.5c4-1.1,8.2-1.7,12.3-1.8c6.5-0.3,10,3.2,9.7,9.6
		C1702.5,53.5,1699.9,72,1696.5,91.3z"/>
	<path class="st5" d="M1708.2,359.6c-8.8,0.6-15.9-0.6-22.5-4.3c-7.6-4.3-7.9-9.9-2.2-16.3c4.1-4.7,7.6-9.6,14.7-8
		c9.4,2,18.8,4.1,25.9,11.3c3.1,3.1,2.7,6.6,0,10.2C1719.7,358.1,1714.2,360.8,1708.2,359.6z"/>
	<path class="st5" d="M1418.9,228c-11.4,1.2-18.4-6.6-25-14.7c-2.3-2.8-3-6.4-0.1-9.3c3.3-3.3,7.7-4.8,11.8-2.3
		c8.3,5.2,16.3,10.8,24.3,16.5c3.7,2.6,2.2,5.6-0.6,8C1426.5,228.6,1423,228.7,1418.9,228z"/>
	<path class="st5" d="M1497.7,254.3c18.7,9,36.8,17.9,56.3,24.4c-4.1,0-8.3,0.4-12.4-0.1c-15.2-1.6-29.9-5.4-44.6-9.6
		c-3.3-0.9-4.3-1.9-2-5.2C1496.9,261.3,1497.4,258.1,1497.7,254.3z"/>
	<path class="st6" d="M1652.3,59.2c10.2-4.4,19-8.1,27.9-11.9c3.4-1.4,4.6,0.1,4.3,3.4c-0.6,7.8-3.1,15.1-5,22.6
		c-0.6,2.2-1.8,2-3.3,0.8C1669.1,68.8,1661.4,64.4,1652.3,59.2z"/>
	<path class="st5" d="M1789,362.4c4.7,1.6,8.7,2.8,12.6,4.2c10.9,3.9,21.9,8,32.8,11.9c0.8,0.3,2.1-0.1,1.9,1.3
		c-0.1,1.3-1.1,1-2.1,0.9c-14.7-1.8-29.4-3.7-44.2-5.2c-4.4-0.5-6.8-1.3-3.7-6.1c0.9-1.4,1.1-3.2,1.4-4.8
		C1788,363.1,1788.2,362.2,1789,362.4z"/>
	<path class="st5" d="M1755.1,370.9c-2.9-1.2-8.5,0.9-8.7-5.5c-0.2-4.4,3.6-8.2,7.8-7.7c4.2,0.5,8.1,2.4,8.3,6.9
		C1762.5,368.1,1760.4,371.5,1755.1,370.9z"/>
	<path class="st6" d="M696.7,394.6c1.4,0.1,3.1-0.4,4.1,1.2c0.9,1.6-0.1,2.9-0.9,4.1c-2.2,3.1-4.7,5.9-7.8,8.1
		c-2.2,1.6-5.1,2.9-6.9,0c-1.7-2.7-3.3-6.2,0-9.2C687.3,396.8,693.1,394.7,696.7,394.6z"/>
	<path class="st5" d="M1473.8,250.6c-0.4,3.1-2,5.8-5.6,6.4c-3.1,0.4-10.6-4.9-10.4-7.1c0.3-4.9,3.8-6.1,7.9-6.2
		C1470.6,243.4,1473.9,246.2,1473.8,250.6z"/>
	<path class="st1" d="M1083.1,490.4c0.1,0.5,0.1,1,0.2,1.4c-0.4-0.2-0.8-0.3-1.2-0.5C1082.4,491,1082.8,490.7,1083.1,490.4z"/>
	<path class="st0" d="M665.2,430.7c22.5-3.6,35.2,20.2,26.3,38.4c-4.6,9.3-11.3,17-19.5,23.2c-22.6,16.9-48.1,25.7-76.4,25.5
		c-5.6-0.1-11.3-1-16.3-4.2c-9.3-6-12.9-16.2-10.2-29c2.4-11.3,8.8-20.1,17.9-26.7c19.1-14,40.7-22,64-25.9
		C655.8,431.1,660.7,430.2,665.2,430.7z M602.1,509.3c23.4-3,45.8-9.5,64.8-24.7c7.1-5.7,13.4-12.3,16.9-20.9
		c4.5-11.3-2.1-24.1-12.7-23.9c-29,0.6-55.7,8.8-79.3,26c-7,5.1-11.6,12.2-13.7,20.8c-2.8,11.4,2.7,21.1,14.7,21.6
		C595.7,508.4,598.7,508.9,602.1,509.3z"/>
	<path class="st0" d="M963.7,387.4c0.2,25.8-14.3,46.8-37.2,54.5c-5.3,1.8-10.8,1.9-16.2,1.7c-3.3-0.1-6.3-1.6-6.3-5.2
		c0-3.8,3.4-3.2,6-3.4c33.4-2.4,46-29,43.9-54.8c-1.7-20.6-11.8-35-31.8-40.9c-17.5-5.2-34-2.6-48.5,9.4c-2.3,1.9-4.8,6.2-7.9,3.2
		c-3.4-3.2,0.2-6.7,2.4-9.2c9.1-10.3,21.5-13.9,34.5-14.7c12.8-0.8,25,2,36.2,9c17.1,10.6,23.5,26.8,24.8,45.8
		C963.8,384.4,963.7,385.9,963.7,387.4z"/>
	<path class="st0" d="M128.4,510.2c1.6-9.1,5.7-17.1,11.5-24.2c4.6-5.6,4.6-5.7-1.8-9.7c-4.3-2.7-8.8-5.1-13.2-7.7
		c-2-1.2-4-2.7-2.9-5.4c1-2.7,3.5-2.7,5.8-2.1c7.7,1.7,14.5,5.5,20.5,10.5c3,2.5,4.8,2.3,7.6,0.2c4.8-3.7,10.3-6.4,16.2-7.9
		c2.1-0.5,4.3-0.9,5.5,1.4c1.4,2.6-0.4,4.3-2.3,5.6c-4.3,2.8-8.5,5.6-12.9,8.1c-3,1.7-2.8,3.1-0.6,5.6c4.6,5.1,8.6,10.5,10.9,17.1
		c0.6,1.6,1.2,3.2,1.5,4.9c0.3,1.7,0.5,3.7-1.2,4.6c-1.9,1-3.2-0.7-4.2-2c-4.2-5.1-8.3-10.3-12.4-15.5c-4.8-6.2-4.7-6.1-9.7,0.2
		c-3.2,4.1-5.2,8.8-7.6,13.2c-1.2,2.1-2.6,4.2-4.1,6.1c-1.2,1.4-2.6,3.2-4.7,2.2C128.1,514.3,128.7,512.1,128.4,510.2z"/>
	<path class="st0" d="M890,381.9c-1.5,0-3,0-4.5,0c-2.4,0-4.8-0.2-5.2-3.1c-0.4-2.8,1.8-4,4-4.7c9-2.9,17.9-1.6,26.8,0.5
		c8,1.9,8.6,1.4,8.1-7.2c-0.1-2.6-0.5-5.3-0.6-7.9c0-2,0.4-4,2.6-4.5c2.5-0.6,3.9,1.2,4.6,3.2c2,5.6,3.1,11.4,1.4,17.2
		c-1.2,4.2-0.1,6.7,3.6,8.7c3.3,1.8,6.3,4.2,8.3,7.5c1.1,1.8,1.8,3.9,0.2,5.8c-1.5,1.7-3.5,0.9-5.3,0.4c-0.4-0.1-0.7-0.3-1-0.5
		c-3.6-1.5-6.7-6.3-10-5.2c-2.8,0.9-4,6-6.1,9.1c-2.5,3.6-5.4,6.9-10,7.8c-1.8,0.4-4.1,0.8-5.2-1.1c-1.1-1.9,0.4-3.6,1.7-4.9
		c4.1-3.9,7.6-8.3,10.2-13.4c1.5-2.8,1-3.9-2.1-4.7C904.6,383.3,897.4,381.9,890,381.9z"/>
	<path class="st0" d="M752.9,480.6c-9.5,0-15.1-3.9-16.7-11.1c-1.6-7.2,2-14,9.4-17.3c8.6-3.8,17.4-6,26.7-2.1
		c9.6,4.1,11.5,14.3,3.8,21.3C769.3,477.8,760.9,480.1,752.9,480.6z M752.2,471.6c6.3-0.5,12.3-1.9,17.2-6.2c3.4-3,3-5.3-1.2-7
		c-6.7-2.8-12.9-0.7-19,2c-3.1,1.4-4.8,3.9-4.1,7.2C745.9,471.1,749,471.6,752.2,471.6z"/>
	<path class="st0" d="M737.1,408c11.2-0.1,15.5,6.1,11.9,15.6c-3.7,9.6-18.7,19.3-28.9,18.7c-7-0.4-13.7-5.2-15.2-10.8
		c-1.5-6,1.3-11.9,7.9-16C720.5,410.6,729.2,408.9,737.1,408z M721.9,433.3c6.6-1.4,13-4.6,17.5-10.9c0.9-1.3,2.3-2.9,1.2-4.6
		c-1-1.5-3-1.6-4.7-1.3c-6.3,1.1-12.5,2.5-18.1,5.9c-2.5,1.5-5,3.3-4,6.6C714.8,432.4,717.9,433,721.9,433.3z"/>
	<path class="st0" d="M1520.2,564.4c-17.8-1.3-35-6.8-52-13.3c-32.2-12.2-63.4-26.4-92.9-44.4c-40.4-24.8-76.1-55.1-107.8-90.2
		c-8-8.8-15.2-18.3-21.6-28.3c-7.3-11.4-10.5-24.1-11.6-37.5c-0.3-3.9,0.5-7.6,3.1-10.6c1.7-2,3.9-3.3,6.5-1.8
		c2.7,1.6,2.7,4,1.2,6.4c-1.9,3-1.7,6-1.3,9.3c1.7,14.1,7.1,26.5,15.7,37.7c12.1,15.8,25.1,30.6,39.8,44.1
		c12.8,11.8,25.5,23.6,39.3,34.2c18.9,14.5,38.9,27.4,59.6,39.1c29.6,16.6,60.8,29.4,92.9,40.1c9.9,3.3,20,5.4,30.4,6.6
		c0.9,0.1,1.9,0.3,2.8,0.4c2.5,0.5,5.9,0.6,5.7,4.1c-0.2,3.7-3.6,3.8-6.5,4C1522.6,564.4,1521.7,564.4,1520.2,564.4z"/>
	<path class="st0" d="M1938,209.7c-0.5,6.4-0.8,12.8-1.4,19.2c-0.7,7.7-5.6,10.7-12.6,7.1c-5-2.6-9.6-5.9-14.3-9.2
		c-7.9-5.6-16.1-10.6-24.5-15.2c-2.3-1.3-4.8-2.6-4.7-5.8c0.1-3.1,2.8-3.4,5-4.6c10.2-5.4,20.9-9.6,31.8-13.2
		c13.9-4.6,20-0.3,20.6,14.3C1938.1,204.8,1938,207.2,1938,209.7z M1895.5,205.5c9.9,6.6,19,12.6,28.1,18.6c1.9,1.2,3.3,1,3.4-1.6
		c0.4-7.9,1.8-15.8,1.4-23.7c-0.2-3.8-2.4-4.4-5.4-3.5C1914.1,197.9,1905.3,201.3,1895.5,205.5z"/>
	<path class="st0" d="M1686.2,601.1c-17.7-1.2-36.8-6.6-55.2-14.7c-0.2-0.1-0.4-0.1-0.5-0.3c-3.3-2.4-8.5-5.3-6.7-9.2
		c1.9-4,6.8-0.2,10,1c13,5,26.2,9.4,40,12.1c20,3.9,38.5,0.7,55.8-10.3c3.1-2,7.1-6.2,10.2-1.7c3.1,4.5-2.3,6.9-5.2,9.1
		C1720.8,597,1705.3,601,1686.2,601.1z"/>
	<path class="st0" d="M1551.7,347c3,0.9,3.8,3.3,4.6,5.5c2.7,7.7,6.3,14.9,9.9,22.2c8.9,17.8,21.7,32.1,38.3,43
		c2.2,1.5,4.5,2.9,6.5,4.5c1.9,1.5,4.1,3.2,2.4,6.1c-1.5,2.5-4,1.9-6.1,1.1c-3-1.2-5.9-2.5-8.6-4.2c-23.8-15.3-38.8-37.5-48.9-63.5
		c-1.3-3.4-1.9-6.9-1.6-10.6C1548.4,349,1549.4,347.4,1551.7,347z"/>
	<path class="st0" d="M1764.5,518.9c2.2-13.7-2.2-24.3-13.7-31.9c-3.7-2.4-8-3.3-12.1-4.8c-2.1-0.7-4.9-1.2-4.6-4.1
		c0.4-3.2,3.4-3,5.9-3.1c13.9-0.6,29.5,13.3,32.9,28.8c1.1,5.3,0.6,10.5,0,15.7c-0.4,2.8-1,6.2-4.8,5.8
		C1764.3,524.9,1764.7,521.5,1764.5,518.9z"/>
	<path class="st0" d="M1785.6,485.9c0,2.2-0.5,4.3-2.8,5c-2.1,0.7-3.7-0.7-4.6-2.4c-3.3-5.9-7.3-10.9-13.8-13.5
		c-1.6-0.6-2.7-2.2-2.2-4.1c0.6-2.1,2.2-2.8,4.3-3C1773.9,467.3,1785.6,478.4,1785.6,485.9z"/>
	<path class="st0" d="M1069.8,179.1c3.2-0.1,5.9,1.2,8.3,3.1c11.4,8.6,18,20.1,20.8,34c0.4,2,0.1,4.1-0.1,6.2
		c-0.2,2.1-0.6,4.5-3.3,4.4c-2.6,0-3.4-2.2-3.7-4.3c-1.5-8.5-4.4-16.4-9.3-23.5c-2.7-3.9-6-7.3-9.9-10c-1.4-1-3-1.9-4.7-0.6
		c-1.4,1-1.5,2.6-1.3,4.1c1.3,7.5,4,14.5,7.9,21.1c1,1.7,2.1,3.1,4.3,1c2.8-2.7,4-0.2,4.6,2.1c0.8,2.9,0.4,5.7-2.2,7.7
		c-2.4,1.8-5,1.7-7.5,0.3c-2.9-1.6-5.2-3.9-6.8-6.7c-4.5-7.7-7.7-16-9-24.9C1056.8,185.1,1062.2,178.9,1069.8,179.1z"/>
	<path class="st6" d="M602.1,509.3c-3.4-0.4-6.4-0.9-9.4-1c-12-0.5-17.4-10.3-14.7-21.6c2.1-8.6,6.7-15.7,13.7-20.8
		c23.6-17.2,50.3-25.3,79.3-26c10.6-0.2,17.2,12.6,12.7,23.9c-3.5,8.6-9.7,15.2-16.9,20.9C647.8,499.8,625.5,506.3,602.1,509.3z"/>
	<path class="st6" d="M752.2,471.6c-3.2,0-6.3-0.4-7.1-4.1c-0.7-3.3,1-5.8,4.1-7.2c6.1-2.7,12.3-4.8,19-2c4.2,1.8,4.7,4,1.2,7
		C764.5,469.7,758.5,471,752.2,471.6z"/>
	<path class="st6" d="M721.9,433.3c-4-0.3-7.1-0.9-8.1-4.3c-1-3.4,1.4-5.1,4-6.6c5.6-3.4,11.8-4.8,18.1-5.9c1.7-0.3,3.7-0.1,4.7,1.3
		c1.1,1.7-0.3,3.3-1.2,4.6C735,428.7,728.6,431.9,721.9,433.3z"/>
	<path class="st6" d="M1895.5,205.5c9.7-4.3,18.5-7.6,27.6-10.2c3-0.9,5.2-0.3,5.4,3.5c0.4,8-1,15.8-1.4,23.7
		c-0.1,2.5-1.6,2.8-3.4,1.6C1914.6,218.1,1905.5,212.1,1895.5,205.5z"/>
</g>
</svg>
